<?xml version="1.0" encoding="utf-8"?>
<!-- Generator: Adobe Illustrator 18.0.0, SVG Export Plug-In . SVG Version: 6.00 Build 0)  -->
<!DOCTYPE svg PUBLIC "-//W3C//DTD SVG 1.1//EN" "http://www.w3.org/Graphics/SVG/1.1/DTD/svg11.dtd">
<svg version="1.1" id="Layer_1" xmlns="http://www.w3.org/2000/svg" xmlns:xlink="http://www.w3.org/1999/xlink" x="0px" y="0px"
	 viewBox="0 0 150 150" enable-background="new 0 0 150 150" xml:space="preserve">
<path fill="#FFFFFF" d="M122.2,30H110V17.8C110,8,101.7,0,91.9,0H59.8C50,0,42,8,42,17.8V30H27.8C12.5,30,0,42.4,0,57.8v64.4
	C0,137.6,12.5,150,27.8,150h94.4c15.4,0,27.8-12.4,27.8-27.8V57.8C150,42.4,137.6,30,122.2,30z M75,106c-8.8,0-16-7.2-16-16
	s7.2-16,16-16s16,7.2,16,16S83.8,106,75,106z M57,30v-7.2c0-5.1,4-8.8,9.1-8.8h18.7c5.1,0,9.2,3.7,9.2,8.8V30H57z"/>
</svg>
