<?xml version="1.0" encoding="utf-8"?>
<!-- Generator: Adobe Illustrator 18.0.0, SVG Export Plug-In . SVG Version: 6.00 Build 0)  -->
<!DOCTYPE svg PUBLIC "-//W3C//DTD SVG 1.1//EN" "http://www.w3.org/Graphics/SVG/1.1/DTD/svg11.dtd">
<svg version="1.1" id="Layer_1" xmlns="http://www.w3.org/2000/svg" xmlns:xlink="http://www.w3.org/1999/xlink" x="0px" y="0px"
	 viewBox="0 0 482.8 100" enable-background="new 0 0 482.8 100" xml:space="preserve">
<g>
	<g>
		<g>
			<g>
				<defs>
					<path id="SVGID_104_" d="M100,92.2c0,4.3-3.5,7.8-7.8,7.8H7.8C3.5,100,0,96.5,0,92.2V7.8C0,3.5,3.5,0,7.8,0h84.4
						c4.3,0,7.8,3.5,7.8,7.8V92.2z"/>
				</defs>
				<clipPath id="SVGID_49_">
					<use xlink:href="#SVGID_104_"  overflow="visible"/>
				</clipPath>
			</g>
			<g>
				<defs>
					<path id="SVGID_103_" d="M100,92.2c0,4.3-3.5,7.8-7.8,7.8H7.8C3.5,100,0,96.5,0,92.2V7.8C0,3.5,3.5,0,7.8,0h84.4
						c4.3,0,7.8,3.5,7.8,7.8V92.2z"/>
				</defs>
				<clipPath id="SVGID_53_">
					<use xlink:href="#SVGID_103_"  overflow="visible"/>
				</clipPath>
			</g>
			<g>
				<defs>
					<path id="SVGID_102_" d="M100,92.2c0,4.3-3.5,7.8-7.8,7.8H7.8C3.5,100,0,96.5,0,92.2V7.8C0,3.5,3.5,0,7.8,0h84.4
						c4.3,0,7.8,3.5,7.8,7.8V92.2z"/>
				</defs>
				<clipPath id="SVGID_54_">
					<use xlink:href="#SVGID_102_"  overflow="visible"/>
				</clipPath>
			</g>
			<g>
				<defs>
					<path id="SVGID_101_" d="M100,92.2c0,4.3-3.5,7.8-7.8,7.8H7.8C3.5,100,0,96.5,0,92.2V7.8C0,3.5,3.5,0,7.8,0h84.4
						c4.3,0,7.8,3.5,7.8,7.8V92.2z"/>
				</defs>
				<clipPath id="SVGID_56_">
					<use xlink:href="#SVGID_101_"  overflow="visible"/>
				</clipPath>
			</g>
			<g>
				<defs>
					<path id="SVGID_100_" d="M100,92.2c0,4.3-3.5,7.8-7.8,7.8H7.8C3.5,100,0,96.5,0,92.2V7.8C0,3.5,3.5,0,7.8,0h84.4
						c4.3,0,7.8,3.5,7.8,7.8V92.2z"/>
				</defs>
				<clipPath id="SVGID_57_">
					<use xlink:href="#SVGID_100_"  overflow="visible"/>
				</clipPath>
			</g>
		</g>
		<g>
			<g>
				<defs>
					<path id="SVGID_99_" d="M100,92.2c0,4.3-3.5,7.8-7.8,7.8H7.8C3.5,100,0,96.5,0,92.2V7.8C0,3.5,3.5,0,7.8,0h84.4
						c4.3,0,7.8,3.5,7.8,7.8V92.2z"/>
				</defs>
				<clipPath id="SVGID_59_">
					<use xlink:href="#SVGID_99_"  overflow="visible"/>
				</clipPath>
				<rect x="0" y="0" clip-path="url(#SVGID_59_)" fill="#262929" width="100" height="100"/>
			</g>
			<g>
				<defs>
					<path id="SVGID_98_" d="M100,92.2c0,4.3-3.5,7.8-7.8,7.8H7.8C3.5,100,0,96.5,0,92.2V7.8C0,3.5,3.5,0,7.8,0h84.4
						c4.3,0,7.8,3.5,7.8,7.8V92.2z"/>
				</defs>
				<clipPath id="SVGID_61_">
					<use xlink:href="#SVGID_98_"  overflow="visible"/>
				</clipPath>
				<g clip-path="url(#SVGID_61_)">
					<rect x="50.7" y="5" fill="#505456" width="1.9" height="2.1"/>
					<rect x="76.3" y="70.7" fill="#505456" width="3.1" height="3.1"/>
					<rect x="18.7" y="52.1" fill="#505456" width="2.1" height="2.1"/>
					<rect x="31" y="32.2" fill="#505456" width="2.1" height="2.1"/>
					<rect x="8.9" y="86.9" fill="#505456" width="2.1" height="2.1"/>
					<rect x="55.3" y="95.2" fill="#505456" width="2.1" height="2.1"/>
					<rect x="93" y="5.7" fill="#505456" width="2.1" height="2"/>
					<rect x="33.5" y="22.3" fill="#505456" width="3.2" height="3.2"/>
					<rect x="2.3" y="58.3" fill="#505456" width="3.3" height="3.2"/>
					<rect x="89.2" y="84.4" fill="#505456" width="3.3" height="3.3"/>
					<rect x="36.7" y="81.2" fill="#505456" width="3.3" height="3.2"/>
					<rect x="24.3" y="93.9" fill="#505456" width="3.3" height="3.2"/>
					<rect x="65.2" y="52.5" fill="#505456" width="1.4" height="1.4"/>
					<rect x="68.6" y="31.3" fill="#505456" width="1.4" height="1.4"/>
					<rect x="89.7" y="36.2" fill="#505456" width="1.4" height="1.3"/>
					<rect x="89.7" y="13.2" fill="#505456" width="1.4" height="1.5"/>
					<rect x="96.3" y="60.7" fill="#505456" width="1.5" height="1.4"/>
					<rect x="6.5" y="30.7" fill="#505456" width="1.3" height="1.4"/>
					<rect x="26" y="8.3" fill="#505456" width="1.4" height="1.4"/>
					<rect x="70.7" y="10.8" fill="#505456" width="2.2" height="2.3"/>
					<rect x="77.3" y="51.9" fill="#505456" width="2.2" height="2.2"/>
					<rect x="29.7" y="63" fill="#505456" width="1.3" height="1.3"/>
					<rect x="18.6" y="77" fill="#505456" width="1.3" height="1.3"/>
					<rect x="62.9" y="77" fill="#505456" width="1.3" height="1.3"/>
					<rect x="21.5" y="27" fill="#505456" width="1.3" height="1.3"/>
					<rect x="33" y="39.9" fill="#505456" width="1.3" height="1.5"/>
					<rect x="10.7" y="3.3" fill="#505456" width="1.4" height="1.4"/>
				</g>
			</g>
			<g>
				<defs>
					<path id="SVGID_97_" d="M100,92.2c0,4.3-3.5,7.8-7.8,7.8H7.8C3.5,100,0,96.5,0,92.2V7.8C0,3.5,3.5,0,7.8,0h84.4
						c4.3,0,7.8,3.5,7.8,7.8V92.2z"/>
				</defs>
				<clipPath id="SVGID_63_">
					<use xlink:href="#SVGID_97_"  overflow="visible"/>
				</clipPath>
				<g clip-path="url(#SVGID_63_)">
					<rect x="5.2" y="47.4" fill="#FFFFFF" width="2.1" height="1.9"/>
					<rect x="70.9" y="20.5" fill="#FFFFFF" width="3.1" height="3.1"/>
					<rect x="52.3" y="79.1" fill="#FFFFFF" width="2.1" height="2.1"/>
					<rect x="89.5" y="93.3" fill="#FFFFFF" width="2.1" height="2.1"/>
					<rect x="91.5" y="44.7" fill="#FFFFFF" width="2.1" height="2.1"/>
					<rect x="15.3" y="15.1" fill="#FFFFFF" width="2" height="2.1"/>
					<rect x="22.5" y="63.2" fill="#FFFFFF" width="3.2" height="3.2"/>
					<rect x="47.6" y="84.9" fill="#FFFFFF" width="3.2" height="3.3"/>
					<rect x="84.6" y="7.4" fill="#FFFFFF" width="3.3" height="3.3"/>
					<rect x="84.7" y="58.8" fill="#FFFFFF" width="3.2" height="3.3"/>
					<rect x="93.7" y="78.5" fill="#FFFFFF" width="3.2" height="3.3"/>
					<rect x="59.2" y="29.6" fill="#FFFFFF" width="1.4" height="1.4"/>
					<rect x="24.1" y="40.7" fill="#FFFFFF" width="1.4" height="1.4"/>
					<rect x="36.4" y="8.8" fill="#FFFFFF" width="1.3" height="1.4"/>
					<rect x="5.2" y="9.8" fill="#FFFFFF" width="1.5" height="1.4"/>
					<rect x="60.9" y="2.1" fill="#FFFFFF" width="1.4" height="1.5"/>
					<rect x="38.4" y="92.9" fill="#FFFFFF" width="1.4" height="1.3"/>
					<rect x="8.5" y="72.6" fill="#FFFFFF" width="1.4" height="1.4"/>
					<rect x="11" y="27" fill="#FFFFFF" width="2.3" height="2.2"/>
					<rect x="52.1" y="20.3" fill="#FFFFFF" width="2.2" height="2.2"/>
					<rect x="63.2" y="68.9" fill="#FFFFFF" width="1.3" height="1.3"/>
					<rect x="77.1" y="80.1" fill="#FFFFFF" width="1.3" height="1.3"/>
					<rect x="77.1" y="35.7" fill="#FFFFFF" width="1.3" height="1.3"/>
					<rect x="27.1" y="77.1" fill="#FFFFFF" width="1.3" height="1.3"/>
					<rect x="40.1" y="65.6" fill="#FFFFFF" width="1.5" height="1.3"/>
					<rect x="4.2" y="93.5" fill="#FFFFFF" width="1.4" height="1.4"/>
				</g>
			</g>
			<g>
				<defs>
					<path id="SVGID_96_" d="M100,92.2c0,4.3-3.5,7.8-7.8,7.8H7.8C3.5,100,0,96.5,0,92.2V7.8C0,3.5,3.5,0,7.8,0h84.4
						c4.3,0,7.8,3.5,7.8,7.8V92.2z"/>
				</defs>
				<clipPath id="SVGID_85_">
					<use xlink:href="#SVGID_96_"  overflow="visible"/>
				</clipPath>
				<polygon clip-path="url(#SVGID_85_)" fill="#505456" points="94.6,130.6 32.5,68.6 35.2,36.9 55.8,37 117.9,99.1 				"/>
			</g>
			<g>
				<defs>
					<path id="SVGID_95_" d="M100,92.2c0,4.3-3.5,7.8-7.8,7.8H7.8C3.5,100,0,96.5,0,92.2V7.8C0,3.5,3.5,0,7.8,0h84.4
						c4.3,0,7.8,3.5,7.8,7.8V92.2z"/>
				</defs>
				<clipPath id="SVGID_87_">
					<use xlink:href="#SVGID_95_"  overflow="visible"/>
				</clipPath>
				<g clip-path="url(#SVGID_87_)">
					<path fill="#FFFFFF" d="M32.6,33.5h12c7.3,0,12.9,2,12.9,8.7c0,3.1-1.8,6.5-5.9,7.6V50c5,0.9,7.6,3.6,7.6,8.2
						c0,7.2-6,10.3-13.6,10.3h-13V33.5z M44.2,47.6c3.9,0,5.5-1.7,5.5-4.3c0-2.6-1.8-3.7-5.5-3.7h-3.8v8H44.2z M44.9,62.4
						c4.3,0,6.5-1.6,6.5-4.8c0-3.1-2.2-4.4-6.5-4.4h-4.5v9.2H44.9z"/>
				</g>
			</g>
		</g>
		<g>
			<g>
				<defs>
					<path id="SVGID_94_" d="M100,92.2c0,4.3-3.5,7.8-7.8,7.8H7.8C3.5,100,0,96.5,0,92.2V7.8C0,3.5,3.5,0,7.8,0h84.4
						c4.3,0,7.8,3.5,7.8,7.8V92.2z"/>
				</defs>
				<clipPath id="SVGID_88_">
					<use xlink:href="#SVGID_94_"  overflow="visible"/>
				</clipPath>
			</g>
			<g>
				<defs>
					<path id="SVGID_93_" d="M100,92.2c0,4.3-3.5,7.8-7.8,7.8H7.8C3.5,100,0,96.5,0,92.2V7.8C0,3.5,3.5,0,7.8,0h84.4
						c4.3,0,7.8,3.5,7.8,7.8V92.2z"/>
				</defs>
				<clipPath id="SVGID_105_">
					<use xlink:href="#SVGID_93_"  overflow="visible"/>
				</clipPath>
			</g>
			<g>
				<defs>
					<path id="SVGID_92_" d="M100,92.2c0,4.3-3.5,7.8-7.8,7.8H7.8C3.5,100,0,96.5,0,92.2V7.8C0,3.5,3.5,0,7.8,0h84.4
						c4.3,0,7.8,3.5,7.8,7.8V92.2z"/>
				</defs>
				<clipPath id="SVGID_106_">
					<use xlink:href="#SVGID_92_"  overflow="visible"/>
				</clipPath>
			</g>
			<g>
				<defs>
					<path id="SVGID_91_" d="M100,92.2c0,4.3-3.5,7.8-7.8,7.8H7.8C3.5,100,0,96.5,0,92.2V7.8C0,3.5,3.5,0,7.8,0h84.4
						c4.3,0,7.8,3.5,7.8,7.8V92.2z"/>
				</defs>
				<clipPath id="SVGID_108_">
					<use xlink:href="#SVGID_91_"  overflow="visible"/>
				</clipPath>
			</g>
			<g>
				<defs>
					<path id="SVGID_90_" d="M100,92.2c0,4.3-3.5,7.8-7.8,7.8H7.8C3.5,100,0,96.5,0,92.2V7.8C0,3.5,3.5,0,7.8,0h84.4
						c4.3,0,7.8,3.5,7.8,7.8V92.2z"/>
				</defs>
				<clipPath id="SVGID_110_">
					<use xlink:href="#SVGID_90_"  overflow="visible"/>
				</clipPath>
			</g>
		</g>
	</g>
	<g>
		<path fill="#4D4D4D" d="M134.6,34.4h8.2c6.1,0,10,2.3,10,7.4c0,3.2-1.7,5.7-4.7,6.6v0.2c3.9,0.6,6.5,3.1,6.5,7.3
			c0,5.8-4.4,8.8-11.3,8.8h-8.8V34.4z M141.9,47.8c6.2,0,8.7-2.2,8.7-5.8c0-4.3-2.9-5.8-8.5-5.8h-5.5v11.6H141.9z M142.8,63
			c6,0,9.8-2.2,9.8-7c0-4.4-3.5-6.4-9.8-6.4h-6.1V63H142.8z"/>
		<path fill="#4D4D4D" d="M188.8,34.4h2.1v28.5h14v1.8h-16.1V34.4z"/>
		<path fill="#4D4D4D" d="M235.9,49.5c0-9.6,5.2-15.6,12.5-15.6c7.3,0,12.5,6,12.5,15.6c0,9.6-5.2,15.8-12.5,15.8
			C241.1,65.3,235.9,59.1,235.9,49.5z M258.6,49.5c0-8.4-4.1-13.7-10.3-13.7c-6.2,0-10.3,5.3-10.3,13.7c0,8.4,4.1,13.9,10.3,13.9
			C254.6,63.4,258.6,57.9,258.6,49.5z"/>
		<path fill="#4D4D4D" d="M293.5,49.5c0-9.6,5.2-15.6,12.9-15.6c3.5,0,6.3,1.7,7.9,3.6l-1.2,1.4c-1.7-1.9-3.9-3.1-6.6-3.1
			c-6.7,0-10.8,5.3-10.8,13.7s4,13.8,10.6,13.8c3.1,0,5.5-1.3,7.7-3.7l1.2,1.3c-2.3,2.7-5.1,4.3-9,4.3
			C298.7,65.3,293.5,59.2,293.5,49.5z"/>
		<path fill="#4D4D4D" d="M349,34.4h2.1v16.8h0.1l14.7-16.8h2.5l-9.7,11.2l11,19.1h-2.4l-10-17.5l-6.2,7v10.4H349V34.4z"/>
		<path fill="#4D4D4D" d="M401.6,34.7h6l5.3,14.7c0.6,1.9,1.3,3.9,1.9,5.9h0.2c0.6-2,1.2-4,1.9-5.9l5.2-14.7h6.1v30.1h-4.9V51
			c0-2.8,0.4-6.8,0.7-9.6h-0.2l-2.4,7l-4.9,13.5h-3.2l-5-13.5l-2.4-7h-0.2c0.2,2.8,0.7,6.8,0.7,9.6v13.8h-4.8V34.7z"/>
		<path fill="#4D4D4D" d="M463.5,34.7h5.3v25.6h12.5v4.5h-17.9V34.7z"/>
	</g>
</g>
</svg>
