<?xml version="1.0" encoding="utf-8"?>
<!-- Generator: Adobe Illustrator 18.0.0, SVG Export Plug-In . SVG Version: 6.00 Build 0)  -->
<!DOCTYPE svg PUBLIC "-//W3C//DTD SVG 1.1//EN" "http://www.w3.org/Graphics/SVG/1.1/DTD/svg11.dtd">
<svg version="1.1" id="Layer_1" xmlns="http://www.w3.org/2000/svg" xmlns:xlink="http://www.w3.org/1999/xlink" x="0px" y="0px"
	 viewBox="0 0 200 200" enable-background="new 0 0 200 200" xml:space="preserve">
<g>
	<g>
		<path fill="#B3B3B3" d="M127.7,158H60.1C47,158,36,146.9,36,133.8V66.2C36,53.2,47,43,60.1,43h112c1.4,0,2.6,0.6,3.2,1.8
			c0.6,1.3,0.2,2.6-0.8,3.6L152,73.1v60.7C152,146.6,141,158,127.7,158z M60.1,50C50.9,50,43,57,43,66.2v67.5
			c0,9.2,7.9,17.2,17.1,17.2h67.5c9.6,0,17.3-8.2,17.3-17.2v-62c0-0.9,0.5-1.5,1.1-2.1L164.3,50H60.1z"/>
	</g>
	<g>
		<path fill="#B3B3B3" d="M82,99.1c-1.9,0-3.5-1.6-3.5-3.5c0-5.3-4-9.3-9.3-9.3s-9.3,4-9.3,9.3c0,1.9-1.6,3.5-3.5,3.5
			s-3.5-1.6-3.5-3.5c0-9.1,7.2-16.3,16.3-16.3s16.3,7.2,16.3,16.3C85.5,97.5,83.9,99.1,82,99.1z"/>
	</g>
	<g>
		<path fill="#B3B3B3" d="M131.7,99.1c-1.9,0-3.5-1.6-3.5-3.5c0-5.3-4-9.3-9.3-9.3s-9.3,4-9.3,9.3c0,1.9-1.6,3.5-3.5,3.5
			s-3.5-1.6-3.5-3.5c0-9.1,7.2-16.3,16.3-16.3s16.3,7.2,16.3,16.3C135.2,97.5,133.6,99.1,131.7,99.1z"/>
	</g>
	<path fill="#B3B3B3" d="M95.5,138.1c14.9,0,27.1-14.1,27.1-27.1H68.5C68.5,124,80.6,138.1,95.5,138.1z"/>
</g>
</svg>
