<?xml version="1.0" encoding="utf-8"?>
<!-- Generator: Adobe Illustrator 18.0.0, SVG Export Plug-In . SVG Version: 6.00 Build 0)  -->
<!DOCTYPE svg PUBLIC "-//W3C//DTD SVG 1.1//EN" "http://www.w3.org/Graphics/SVG/1.1/DTD/svg11.dtd">
<svg version="1.1" id="Layer_1" xmlns="http://www.w3.org/2000/svg" xmlns:xlink="http://www.w3.org/1999/xlink" x="0px" y="0px"
	 viewBox="0 0 200 200" enable-background="new 0 0 200 200" xml:space="preserve">
<path fill="#8352FF" d="M162.8,122.8c-2.7-2.7-6.8-3.2-10-1.5l-26.4-26.4c3.9-6.2,3.2-14.5-2.2-19.9s-13.7-6.1-19.9-2.2L78.5,46.9
	c1.1-3,0.5-6.6-1.9-9c-3.3-3.3-8.7-3.3-12,0c-3.3,3.3-3.3,8.7,0,12c2.4,2.4,6,3.1,9,1.9l18.1,18.1c-10.2-2-20.9-0.6-30.4,4.3
	c-6.3-5.4-15.8-5.2-21.8,0.8c-6.2,6.2-6.2,16.4,0,22.6c6.2,6.2,16.4,6.2,22.6,0c4.8-4.8,5.9-11.8,3.4-17.7c10.5-5,22.5-5.2,33.1-0.5
	c-2.8,5.9-1.8,13.3,3.1,18.2s12.3,6,18.2,3.1c4.7,10.6,4.5,22.6-0.5,33.1c-5.8-2.5-12.9-1.4-17.7,3.4c-6.2,6.2-6.2,16.4,0,22.6
	c6.2,6.2,16.4,6.2,22.6,0c6-6,6.2-15.5,0.8-21.8c4.9-9.5,6.3-20.2,4.3-30.4l19.1,19.1c-0.6,2.8,0.1,5.8,2.3,7.9
	c3.3,3.3,8.7,3.3,12,0C166.1,131.5,166.1,126.1,162.8,122.8z M57.1,92.7c-3.5,3.5-9.2,3.5-12.7,0c-3.5-3.5-3.5-9.2,0-12.7
	c2.8-2.8,7-3.4,10.3-1.7c0.9,0.4,1.7,1,2.4,1.7c1,1,1.8,2.3,2.2,3.6C60.3,86.7,59.5,90.3,57.1,92.7z M121.4,89.4
	c0,0.1-0.1,0.2-0.1,0.3c-0.4,1.1-1.1,2.1-2,3c-0.8,0.8-1.8,1.5-2.8,1.9c-0.1,0-0.1,0-0.2,0.1c-3.3,1.3-7.1,0.7-9.8-2s-3.3-6.5-2-9.8
	c0-0.1,0-0.1,0.1-0.2c0.4-1,1.1-2,1.9-2.8c0.9-0.9,1.9-1.5,3-2c0.1,0,0.2-0.1,0.3-0.1c3.2-1.1,6.9-0.4,9.4,2.1
	C121.8,82.5,122.5,86.2,121.4,89.4z M119.3,154.9c-3.5,3.5-9.2,3.5-12.7,0s-3.5-9.2,0-12.7c2.5-2.5,6-3.2,9.1-2.2
	c1.3,0.4,2.5,1.2,3.6,2.2c0.7,0.7,1.3,1.5,1.7,2.4C122.7,148,122.1,152.2,119.3,154.9z"/>
</svg>
