<?xml version="1.0" encoding="utf-8"?>
<!-- Generator: Adobe Illustrator 18.0.0, SVG Export Plug-In . SVG Version: 6.00 Build 0)  -->
<!DOCTYPE svg PUBLIC "-//W3C//DTD SVG 1.1//EN" "http://www.w3.org/Graphics/SVG/1.1/DTD/svg11.dtd">
<svg version="1.1" id="Layer_1" xmlns="http://www.w3.org/2000/svg" xmlns:xlink="http://www.w3.org/1999/xlink" x="0px" y="0px"
	 viewBox="0 0 200 200" enable-background="new 0 0 200 200" xml:space="preserve">
<g>
	<g>
		<path fill="#9FE0F5" d="M152.2,122.8h-104V59.6h104V122.8z M55.2,115.8h90V66.6h-90V115.8z"/>
	</g>
	<path fill="#9FE0F5" d="M171.3,131h-5.2c0.3-1,0.9-1.7,0.9-2.8V54.2c0-5-4.5-9.2-9.6-9.2H43c-5,0-9,4.1-9,9.2v74.1
		c0,1,0.1,1.8,0.4,2.8h-4.7c-5.1,0-9.7,4.3-9.7,9.4v5c0,5.1,4.6,9.7,9.7,9.7h141.6c5.1,0,8.7-4.6,8.7-9.7v-5
		C180,135.3,176.3,131,171.3,131z M160,127.9c0,1.2-1,2.1-2.1,2.1H43.1c-1.2,0-2.1-1-2.1-2.1V54.1c0-1.2,1-2.1,2.1-2.1h114.7
		c1.2,0,2.1,1,2.1,2.1V127.9z M173,144.8c0,1.2-1,2.2-2.2,2.2H29.2c-1.2,0-2.2-1-2.2-2.2v-4.7c0-1.2,1-2.2,2.2-2.2h141.7
		c1.2,0,2.2,1,2.2,2.2V144.8z"/>
	<g>
		<path fill="#9FE0F5" d="M125,83H75c-1.9,0-3.5-1.6-3.5-3.5S73.1,76,75,76h50c1.9,0,3.5,1.6,3.5,3.5S126.9,83,125,83z"/>
	</g>
	<g>
		<path fill="#9FE0F5" d="M123,94H91c-1.9,0-3.5-1.6-3.5-3.5S89.1,87,91,87h32c1.9,0,3.5,1.6,3.5,3.5S124.9,94,123,94z"/>
	</g>
	<g>
		<path fill="#9FE0F5" d="M125,105H75c-1.9,0-3.5-1.6-3.5-3.5S73.1,98,75,98h50c1.9,0,3.5,1.6,3.5,3.5S126.9,105,125,105z"/>
	</g>
</g>
</svg>
