<?xml version="1.0" encoding="utf-8"?>
<!-- Generator: Adobe Illustrator 18.0.0, SVG Export Plug-In . SVG Version: 6.00 Build 0)  -->
<!DOCTYPE svg PUBLIC "-//W3C//DTD SVG 1.1//EN" "http://www.w3.org/Graphics/SVG/1.1/DTD/svg11.dtd">
<svg version="1.1" id="Layer_1" xmlns="http://www.w3.org/2000/svg" xmlns:xlink="http://www.w3.org/1999/xlink" x="0px" y="0px"
	 viewBox="0 0 204 278" enable-background="new 0 0 204 278" xml:space="preserve">
<g>
	<g>
		<g>
			<path fill="#FFFFFF" d="M184.2,3c9.8,0,17.8,7.9,17.8,17.7V276H2V20.7C2,10.9,9.9,3,19.7,3H184 M184.3,1H19.7C8.8,1,0,9.8,0,20.7
				V276v2h2h200h2v-2V20.7C204,9.8,195.2,1,184.3,1L184.3,1z"/>
		</g>
		<g>
			<path fill="#FFFFFF" d="M189,73v203H14V73H189 M191,71h-2H14h-2v2v203v2h2h175h2v-2V73V71L191,71z"/>
		</g>
		<g>
			<path fill="#FFFFFF" d="M118.2,42c1.4,0,2.8,1.1,2.8,2.5v2c0,1.4-1.1,2.5-2.5,2.5h-32c-1.4,0-2.5-1.1-2.5-2.5v-2
				c0-1.4,1.1-2.5,2.5-2.5H118 M118.5,40h-32C84,40,82,42,82,44.5v2c0,2.5,2,4.5,4.5,4.5h32c2.5,0,4.5-2,4.5-4.5v-2
				C123,42,121,40,118.5,40L118.5,40z"/>
		</g>
		<g>
			<path fill="#FFFFFF" d="M103,24c2.2,0,4,1.8,4,4s-1.8,4-4,4s-4-1.8-4-4S100.8,24,103,24 M103,22c-3.3,0-6,2.7-6,6s2.7,6,6,6
				s6-2.7,6-6S106.3,22,103,22L103,22z"/>
		</g>
	</g>
	<g>
		<path fill="#FFFFFF" d="M49.6,135c0-1.5,0.3-2.9,0.8-4c0.5-1.2,1.2-2.2,2-3.2c0.8-0.9,1.7-1.8,2.8-2.6c1-0.8,2.1-1.5,3.2-2.2
			c1.1-0.7,2.2-1.5,3.2-2.2c1.1-0.7,2-1.5,2.9-2.4c0.9-0.9,1.5-1.7,1.9-2.6c0.4-0.9,0.6-2,0.6-3.2c0-1-0.2-1.9-0.5-2.7
			c-0.4-0.8-0.9-1.4-1.5-2c-0.6-0.5-1.4-1-2.2-1.2c-0.8-0.3-1.7-0.4-2.7-0.4c-1.3,0-2.3,0.2-3.2,0.7c-0.9,0.5-1.6,1.1-2.2,1.9
			c-0.6,0.8-1,1.7-1.2,2.7c-0.2,1-0.4,2.1-0.3,3.3h-2.8c0-1.6,0.2-3,0.5-4.4s1-2.5,1.8-3.5c0.8-1,1.9-1.7,3.1-2.3
			c1.2-0.5,2.7-0.8,4.4-0.8c1.3,0,2.6,0.2,3.8,0.5c1.2,0.4,2.2,0.9,3,1.6c0.9,0.7,1.5,1.6,2,2.7c0.5,1.1,0.7,2.3,0.7,3.8
			c0,1.3-0.2,2.5-0.6,3.5c-0.4,1.1-1,2-1.7,2.9c-0.7,0.9-1.5,1.7-2.5,2.4c-0.9,0.7-1.9,1.4-2.9,2.1c-0.7,0.5-1.6,1-2.6,1.6
			c-1,0.6-2,1.3-2.9,2c-0.9,0.7-1.7,1.5-2.4,2.4c-0.7,0.9-1.1,1.8-1.3,2.8h17.1v2.6H49.6z"/>
		<path fill="#FFFFFF" d="M90.1,105.4c1.4,1,2.5,2.2,3.3,3.8c0.8,1.5,1.3,3.2,1.6,5.1c0.3,1.9,0.4,3.7,0.4,5.5
			c0,1.8-0.1,3.7-0.4,5.5c-0.3,1.9-0.8,3.6-1.6,5.1c-0.8,1.5-1.9,2.8-3.3,3.7c-1.4,1-3.2,1.5-5.5,1.5c-2.2,0-4-0.5-5.5-1.5
			s-2.5-2.2-3.3-3.7c-0.8-1.5-1.3-3.2-1.6-5.1c-0.3-1.9-0.4-3.7-0.4-5.5c0-1.8,0.1-3.7,0.4-5.5c0.3-1.9,0.8-3.6,1.6-5.1
			c0.8-1.5,1.9-2.8,3.3-3.8c1.4-1,3.2-1.5,5.5-1.5C86.9,104,88.8,104.4,90.1,105.4z M80.5,107.6c-1.1,0.9-1.9,2-2.4,3.4
			c-0.5,1.3-0.9,2.8-1.1,4.4c-0.2,1.6-0.3,3-0.3,4.4c0,1.3,0.1,2.8,0.3,4.4c0.2,1.6,0.5,3,1.1,4.4c0.5,1.4,1.3,2.5,2.4,3.4
			c1.1,0.9,2.5,1.4,4.2,1.4c1.8,0,3.2-0.5,4.2-1.4c1.1-0.9,1.9-2,2.4-3.4c0.5-1.4,0.9-2.8,1.1-4.4c0.2-1.6,0.3-3,0.3-4.4
			c0-1.3-0.1-2.8-0.3-4.4c-0.2-1.6-0.5-3-1.1-4.4c-0.5-1.3-1.3-2.5-2.4-3.4c-1.1-0.9-2.5-1.4-4.2-1.4
			C82.9,106.3,81.5,106.7,80.5,107.6z"/>
		<path fill="#FFFFFF" d="M101.2,113h3.7v4.7h-3.7V113z M101.2,130.3h3.7v4.7h-3.7V130.3z"/>
		<path fill="#FFFFFF" d="M126.8,105.4c1.4,1,2.5,2.2,3.3,3.8c0.8,1.5,1.3,3.2,1.6,5.1c0.3,1.9,0.4,3.7,0.4,5.5
			c0,1.8-0.1,3.7-0.4,5.5c-0.3,1.9-0.8,3.6-1.6,5.1c-0.8,1.5-1.9,2.8-3.3,3.7c-1.4,1-3.2,1.5-5.5,1.5c-2.2,0-4-0.5-5.5-1.5
			s-2.5-2.2-3.3-3.7c-0.8-1.5-1.3-3.2-1.6-5.1c-0.3-1.9-0.4-3.7-0.4-5.5c0-1.8,0.1-3.7,0.4-5.5c0.3-1.9,0.8-3.6,1.6-5.1
			c0.8-1.5,1.9-2.8,3.3-3.8c1.4-1,3.2-1.5,5.5-1.5C123.6,104,125.4,104.4,126.8,105.4z M117.1,107.6c-1.1,0.9-1.9,2-2.4,3.4
			c-0.5,1.3-0.9,2.8-1.1,4.4c-0.2,1.6-0.3,3-0.3,4.4c0,1.3,0.1,2.8,0.3,4.4c0.2,1.6,0.5,3,1.1,4.4c0.5,1.4,1.3,2.5,2.4,3.4
			c1.1,0.9,2.5,1.4,4.2,1.4c1.8,0,3.2-0.5,4.2-1.4c1.1-0.9,1.9-2,2.4-3.4c0.5-1.4,0.9-2.8,1.1-4.4c0.2-1.6,0.3-3,0.3-4.4
			c0-1.3-0.1-2.8-0.3-4.4c-0.2-1.6-0.5-3-1.1-4.4c-0.5-1.3-1.3-2.5-2.4-3.4c-1.1-0.9-2.5-1.4-4.2-1.4
			C119.6,106.3,118.2,106.7,117.1,107.6z"/>
		<path fill="#FFFFFF" d="M151.3,105.4c1.4,1,2.5,2.2,3.3,3.8c0.8,1.5,1.3,3.2,1.6,5.1c0.3,1.9,0.4,3.7,0.4,5.5
			c0,1.8-0.1,3.7-0.4,5.5c-0.3,1.9-0.8,3.6-1.6,5.1c-0.8,1.5-1.9,2.8-3.3,3.7c-1.4,1-3.2,1.5-5.5,1.5c-2.2,0-4-0.5-5.5-1.5
			c-1.4-1-2.5-2.2-3.3-3.7c-0.8-1.5-1.3-3.2-1.6-5.1c-0.3-1.9-0.4-3.7-0.4-5.5c0-1.8,0.1-3.7,0.4-5.5c0.3-1.9,0.8-3.6,1.6-5.1
			c0.8-1.5,1.9-2.8,3.3-3.8c1.4-1,3.2-1.5,5.5-1.5C148.1,104,149.9,104.4,151.3,105.4z M141.6,107.6c-1.1,0.9-1.9,2-2.4,3.4
			s-0.9,2.8-1.1,4.4c-0.2,1.6-0.3,3-0.3,4.4c0,1.3,0.1,2.8,0.3,4.4c0.2,1.6,0.5,3,1.1,4.4s1.3,2.5,2.4,3.4c1.1,0.9,2.5,1.4,4.2,1.4
			c1.8,0,3.2-0.5,4.2-1.4c1.1-0.9,1.9-2,2.4-3.4s0.9-2.8,1.1-4.4c0.2-1.6,0.3-3,0.3-4.4c0-1.3-0.1-2.8-0.3-4.4
			c-0.2-1.6-0.5-3-1.1-4.4s-1.3-2.5-2.4-3.4c-1.1-0.9-2.5-1.4-4.2-1.4C144,106.3,142.6,106.7,141.6,107.6z"/>
	</g>
	<g>
		<path fill="#FFFFFF" d="M50.9,144.3l2.6,6.8l2.7-6.8h1.1v7.8h-0.7v-6.7h0l-2.7,6.7h-0.7l-2.6-6.7h0v6.7h-0.7v-7.8H50.9z"/>
		<path fill="#FFFFFF" d="M62.1,146.5c0.3,0.2,0.6,0.4,0.8,0.6s0.4,0.6,0.5,0.9c0.1,0.4,0.2,0.7,0.2,1.1s-0.1,0.8-0.2,1.1
			s-0.3,0.7-0.5,0.9s-0.5,0.5-0.8,0.6c-0.3,0.2-0.7,0.2-1.1,0.2c-0.4,0-0.8-0.1-1.1-0.2c-0.3-0.2-0.6-0.4-0.8-0.6
			c-0.2-0.3-0.4-0.6-0.5-0.9c-0.1-0.4-0.2-0.7-0.2-1.1s0.1-0.8,0.2-1.1c0.1-0.4,0.3-0.7,0.5-0.9c0.2-0.3,0.5-0.5,0.8-0.6
			s0.7-0.2,1.1-0.2C61.4,146.3,61.8,146.4,62.1,146.5z M60.1,147.1c-0.2,0.1-0.5,0.3-0.6,0.5c-0.2,0.2-0.3,0.5-0.4,0.8
			c-0.1,0.3-0.1,0.6-0.1,0.9s0,0.6,0.1,0.9c0.1,0.3,0.2,0.5,0.4,0.8c0.2,0.2,0.4,0.4,0.6,0.5c0.2,0.1,0.5,0.2,0.9,0.2
			c0.3,0,0.6-0.1,0.9-0.2s0.5-0.3,0.6-0.5c0.2-0.2,0.3-0.5,0.4-0.8c0.1-0.3,0.1-0.6,0.1-0.9s0-0.6-0.1-0.9c-0.1-0.3-0.2-0.5-0.4-0.8
			c-0.2-0.2-0.4-0.4-0.6-0.5s-0.5-0.2-0.9-0.2C60.6,146.9,60.4,146.9,60.1,147.1z"/>
		<path fill="#FFFFFF" d="M65.3,146.5v1h0c0.1-0.3,0.4-0.6,0.7-0.8s0.7-0.3,1.1-0.3c0.4,0,0.7,0.1,1,0.2c0.3,0.1,0.5,0.2,0.6,0.4
			c0.2,0.2,0.3,0.4,0.3,0.7s0.1,0.6,0.1,0.9v3.6h-0.7v-3.5c0-0.2,0-0.5-0.1-0.7c0-0.2-0.1-0.4-0.2-0.5c-0.1-0.2-0.3-0.3-0.4-0.4
			c-0.2-0.1-0.4-0.1-0.7-0.1c-0.3,0-0.5,0-0.7,0.1c-0.2,0.1-0.4,0.2-0.5,0.4c-0.1,0.2-0.3,0.4-0.3,0.6s-0.1,0.5-0.1,0.8v3.3h-0.7
			v-5.6H65.3z"/>
		<path fill="#FFFFFF" d="M74.8,152.1V151h0c-0.1,0.2-0.2,0.3-0.3,0.5s-0.3,0.3-0.5,0.4c-0.2,0.1-0.4,0.2-0.6,0.2s-0.4,0.1-0.6,0.1
			c-0.4,0-0.8-0.1-1.1-0.2c-0.3-0.2-0.6-0.4-0.8-0.6c-0.2-0.3-0.4-0.6-0.5-0.9c-0.1-0.4-0.2-0.7-0.2-1.1s0.1-0.8,0.2-1.1
			c0.1-0.4,0.3-0.7,0.5-0.9c0.2-0.3,0.5-0.5,0.8-0.6c0.3-0.2,0.7-0.2,1.1-0.2c0.2,0,0.4,0,0.6,0.1c0.2,0.1,0.4,0.1,0.6,0.2
			c0.2,0.1,0.3,0.2,0.5,0.4c0.1,0.2,0.2,0.3,0.3,0.5h0v-3.2h0.7v7.8H74.8z M71,150.1c0.1,0.3,0.2,0.5,0.3,0.8
			c0.1,0.2,0.3,0.4,0.6,0.5c0.2,0.1,0.5,0.2,0.8,0.2c0.4,0,0.7-0.1,0.9-0.2s0.5-0.3,0.6-0.5c0.2-0.2,0.3-0.5,0.3-0.8
			c0.1-0.3,0.1-0.6,0.1-0.9s0-0.6-0.1-0.9c-0.1-0.3-0.2-0.5-0.3-0.8c-0.2-0.2-0.4-0.4-0.6-0.5s-0.6-0.2-0.9-0.2
			c-0.3,0-0.6,0.1-0.8,0.2c-0.2,0.1-0.4,0.3-0.6,0.5c-0.1,0.2-0.3,0.5-0.3,0.8c-0.1,0.3-0.1,0.6-0.1,0.9S71,149.9,71,150.1z"/>
		<path fill="#FFFFFF" d="M76.9,147.3c0.1-0.2,0.3-0.4,0.5-0.6c0.2-0.2,0.4-0.3,0.7-0.3c0.3-0.1,0.6-0.1,0.9-0.1
			c0.2,0,0.5,0,0.7,0.1c0.2,0,0.5,0.1,0.7,0.3c0.2,0.1,0.4,0.3,0.5,0.5c0.1,0.2,0.2,0.5,0.2,0.9v3c0,0.3,0.1,0.4,0.4,0.4
			c0.1,0,0.2,0,0.2,0v0.6c-0.1,0-0.2,0-0.2,0c-0.1,0-0.1,0-0.2,0c-0.2,0-0.3,0-0.4-0.1c-0.1,0-0.2-0.1-0.2-0.2
			c-0.1-0.1-0.1-0.2-0.1-0.3c0-0.1,0-0.3,0-0.4h0c-0.1,0.2-0.2,0.3-0.4,0.5s-0.3,0.3-0.4,0.4c-0.2,0.1-0.3,0.2-0.5,0.2
			c-0.2,0.1-0.4,0.1-0.7,0.1c-0.3,0-0.5,0-0.7-0.1c-0.2-0.1-0.4-0.2-0.6-0.3c-0.2-0.1-0.3-0.3-0.4-0.5c-0.1-0.2-0.1-0.5-0.1-0.7
			c0-0.4,0.1-0.7,0.3-0.9c0.2-0.2,0.4-0.4,0.7-0.5c0.3-0.1,0.6-0.2,1-0.2c0.4,0,0.7-0.1,1.1-0.1c0.1,0,0.3,0,0.4-0.1
			c0.1,0,0.2-0.1,0.3-0.1c0.1-0.1,0.1-0.1,0.2-0.2c0-0.1,0.1-0.2,0.1-0.4c0-0.2,0-0.4-0.1-0.6s-0.2-0.3-0.3-0.4
			c-0.1-0.1-0.3-0.1-0.5-0.2c-0.2,0-0.4,0-0.6,0c-0.4,0-0.8,0.1-1.1,0.3c-0.3,0.2-0.4,0.5-0.4,1h-0.7
			C76.7,147.9,76.8,147.6,76.9,147.3z M80.3,149c0,0.1-0.1,0.1-0.3,0.2c-0.1,0-0.2,0.1-0.3,0.1c-0.3,0.1-0.6,0.1-0.9,0.1
			s-0.6,0.1-0.8,0.2s-0.5,0.2-0.6,0.3c-0.2,0.1-0.2,0.4-0.2,0.6c0,0.2,0,0.3,0.1,0.5c0.1,0.1,0.2,0.3,0.3,0.3s0.3,0.2,0.4,0.2
			c0.2,0.1,0.3,0.1,0.5,0.1c0.3,0,0.5,0,0.8-0.1s0.4-0.2,0.6-0.3c0.2-0.2,0.3-0.3,0.4-0.6c0.1-0.2,0.2-0.5,0.2-0.7L80.3,149
			L80.3,149z"/>
		<path fill="#FFFFFF" d="M82.5,146.5l1.9,4.8l1.7-4.8h0.7l-2.4,6.5c-0.1,0.2-0.2,0.4-0.3,0.6c-0.1,0.2-0.2,0.3-0.3,0.4
			c-0.1,0.1-0.2,0.2-0.4,0.2s-0.3,0.1-0.5,0.1c-0.1,0-0.2,0-0.3,0c-0.1,0-0.1,0-0.2,0v-0.6c0.1,0,0.2,0,0.2,0s0.2,0,0.2,0
			c0.2,0,0.3,0,0.4-0.1c0.1,0,0.2-0.1,0.3-0.2c0.1-0.1,0.1-0.2,0.2-0.3c0.1-0.1,0.1-0.2,0.2-0.4l0.2-0.6l-2.2-5.6H82.5z"/>
		<path fill="#FFFFFF" d="M87.7,152.1c0,0.2,0,0.3-0.1,0.5s-0.1,0.3-0.2,0.4c-0.1,0.1-0.2,0.3-0.3,0.4c-0.1,0.1-0.3,0.2-0.4,0.2
			v-0.5c0.1,0,0.2-0.1,0.2-0.2c0.1-0.1,0.1-0.2,0.2-0.3c0-0.1,0.1-0.2,0.1-0.3s0-0.2,0-0.3h-0.5v-1.2h0.9V152.1z"/>
		<path fill="#FFFFFF" d="M93.4,144.3l4.5,6.6h0v-6.6h0.7v7.8h-0.8l-4.5-6.6h0v6.6h-0.7v-7.8H93.4z"/>
		<path fill="#FFFFFF" d="M103.7,146.5c0.3,0.2,0.6,0.4,0.8,0.6c0.2,0.3,0.4,0.6,0.5,0.9c0.1,0.4,0.2,0.7,0.2,1.1s-0.1,0.8-0.2,1.1
			s-0.3,0.7-0.5,0.9c-0.2,0.3-0.5,0.5-0.8,0.6c-0.3,0.2-0.7,0.2-1.1,0.2s-0.8-0.1-1.1-0.2c-0.3-0.2-0.6-0.4-0.8-0.6
			s-0.4-0.6-0.5-0.9c-0.1-0.4-0.2-0.7-0.2-1.1s0.1-0.8,0.2-1.1c0.1-0.4,0.3-0.7,0.5-0.9s0.5-0.5,0.8-0.6c0.3-0.2,0.7-0.2,1.1-0.2
			S103.3,146.4,103.7,146.5z M101.7,147.1c-0.2,0.1-0.5,0.3-0.6,0.5c-0.2,0.2-0.3,0.5-0.4,0.8c-0.1,0.3-0.1,0.6-0.1,0.9
			s0,0.6,0.1,0.9c0.1,0.3,0.2,0.5,0.4,0.8c0.2,0.2,0.4,0.4,0.6,0.5c0.2,0.1,0.5,0.2,0.9,0.2s0.6-0.1,0.9-0.2
			c0.2-0.1,0.5-0.3,0.6-0.5c0.2-0.2,0.3-0.5,0.4-0.8c0.1-0.3,0.1-0.6,0.1-0.9s0-0.6-0.1-0.9c-0.1-0.3-0.2-0.5-0.4-0.8
			c-0.2-0.2-0.4-0.4-0.6-0.5c-0.2-0.1-0.5-0.2-0.9-0.2S101.9,146.9,101.7,147.1z"/>
		<path fill="#FFFFFF" d="M106.3,146.5l1.8,4.9h0l1.7-4.9h0.7l-2.1,5.6h-0.7l-2.2-5.6H106.3z"/>
		<path fill="#FFFFFF" d="M111.8,150.2c0.1,0.3,0.2,0.5,0.3,0.7s0.3,0.4,0.6,0.5s0.5,0.2,0.8,0.2c0.5,0,0.9-0.1,1.2-0.4
			c0.3-0.3,0.5-0.6,0.6-1h0.7c-0.1,0.6-0.4,1.1-0.8,1.5c-0.4,0.3-0.9,0.5-1.6,0.5c-0.4,0-0.8-0.1-1.1-0.2c-0.3-0.2-0.6-0.4-0.8-0.6
			c-0.2-0.3-0.4-0.6-0.5-0.9c-0.1-0.4-0.1-0.7-0.1-1.1c0-0.4,0-0.7,0.1-1.1c0.1-0.4,0.2-0.7,0.5-1c0.2-0.3,0.5-0.5,0.8-0.7
			c0.3-0.2,0.7-0.3,1.1-0.3c0.4,0,0.8,0.1,1.2,0.3s0.6,0.4,0.8,0.7s0.3,0.6,0.4,1c0.1,0.4,0.1,0.8,0.1,1.2h-4.3
			C111.6,149.7,111.7,150,111.8,150.2z M115.1,148.1c-0.1-0.2-0.2-0.5-0.4-0.6s-0.3-0.3-0.6-0.4c-0.2-0.1-0.5-0.2-0.7-0.2
			c-0.3,0-0.5,0.1-0.8,0.2s-0.4,0.3-0.6,0.4c-0.2,0.2-0.3,0.4-0.4,0.6s-0.2,0.5-0.2,0.7h3.6C115.3,148.6,115.2,148.4,115.1,148.1z"
			/>
		<path fill="#FFFFFF" d="M117.5,146.5v0.9h0c0.2-0.3,0.4-0.6,0.7-0.8c0.3-0.2,0.7-0.3,1.1-0.3c0.4,0,0.7,0.1,1,0.3s0.5,0.5,0.6,0.8
			c0.2-0.4,0.4-0.6,0.7-0.8c0.3-0.2,0.7-0.3,1-0.3c1.2,0,1.9,0.7,1.9,2v3.8H124v-3.8c0-0.5-0.1-0.8-0.3-1.1c-0.2-0.2-0.5-0.4-1-0.4
			c-0.3,0-0.5,0.1-0.7,0.2s-0.4,0.3-0.5,0.5c-0.1,0.2-0.2,0.4-0.2,0.6c0,0.2-0.1,0.5-0.1,0.8v3.2h-0.7v-3.8c0-0.2,0-0.4-0.1-0.5
			c0-0.2-0.1-0.3-0.2-0.4s-0.2-0.2-0.4-0.3s-0.3-0.1-0.6-0.1c-0.3,0-0.5,0.1-0.8,0.2c-0.2,0.1-0.4,0.2-0.5,0.4
			c-0.1,0.2-0.2,0.4-0.3,0.7c-0.1,0.2-0.1,0.5-0.1,0.8v3.1h-0.7v-5.6H117.5z"/>
		<path fill="#FFFFFF" d="M126.6,144.3v3.2h0c0.1-0.2,0.2-0.4,0.3-0.5c0.1-0.2,0.3-0.3,0.5-0.4c0.2-0.1,0.4-0.2,0.6-0.2
			s0.4-0.1,0.6-0.1c0.4,0,0.8,0.1,1.1,0.2s0.6,0.4,0.8,0.6c0.2,0.3,0.4,0.6,0.5,0.9c0.1,0.4,0.2,0.7,0.2,1.1s-0.1,0.8-0.2,1.1
			c-0.1,0.4-0.3,0.7-0.5,0.9c-0.2,0.3-0.5,0.5-0.8,0.6c-0.3,0.2-0.7,0.2-1.1,0.2c-0.5,0-0.9-0.1-1.2-0.3s-0.6-0.5-0.8-0.9h0v1.1H126
			v-7.8H126.6z M130.4,148.4c-0.1-0.3-0.2-0.5-0.3-0.8c-0.1-0.2-0.3-0.4-0.6-0.5c-0.2-0.1-0.5-0.2-0.8-0.2c-0.4,0-0.7,0.1-0.9,0.2
			c-0.2,0.1-0.5,0.3-0.6,0.5c-0.2,0.2-0.3,0.5-0.3,0.8c-0.1,0.3-0.1,0.6-0.1,0.9s0,0.6,0.1,0.9c0.1,0.3,0.2,0.5,0.3,0.8
			c0.2,0.2,0.4,0.4,0.6,0.5c0.3,0.1,0.6,0.2,0.9,0.2c0.3,0,0.6-0.1,0.8-0.2c0.2-0.1,0.4-0.3,0.6-0.5c0.1-0.2,0.3-0.5,0.3-0.8
			c0.1-0.3,0.1-0.6,0.1-0.9S130.4,148.7,130.4,148.4z"/>
		<path fill="#FFFFFF" d="M132.7,150.2c0.1,0.3,0.2,0.5,0.3,0.7c0.2,0.2,0.3,0.4,0.6,0.5c0.2,0.1,0.5,0.2,0.8,0.2
			c0.5,0,0.9-0.1,1.2-0.4c0.3-0.3,0.5-0.6,0.6-1h0.7c-0.1,0.6-0.4,1.1-0.8,1.5c-0.4,0.3-0.9,0.5-1.6,0.5c-0.4,0-0.8-0.1-1.1-0.2
			c-0.3-0.2-0.6-0.4-0.8-0.6c-0.2-0.3-0.4-0.6-0.5-0.9c-0.1-0.4-0.1-0.7-0.1-1.1c0-0.4,0-0.7,0.1-1.1c0.1-0.4,0.2-0.7,0.5-1
			c0.2-0.3,0.5-0.5,0.8-0.7c0.3-0.2,0.7-0.3,1.1-0.3c0.5,0,0.8,0.1,1.2,0.3s0.6,0.4,0.8,0.7c0.2,0.3,0.3,0.6,0.4,1
			c0.1,0.4,0.1,0.8,0.1,1.2h-4.3C132.6,149.7,132.7,150,132.7,150.2z M136.1,148.1c-0.1-0.2-0.2-0.5-0.4-0.6s-0.3-0.3-0.6-0.4
			s-0.5-0.2-0.7-0.2c-0.3,0-0.5,0.1-0.8,0.2s-0.4,0.3-0.6,0.4s-0.3,0.4-0.4,0.6c-0.1,0.2-0.2,0.5-0.2,0.7h3.6
			C136.2,148.6,136.2,148.4,136.1,148.1z"/>
		<path fill="#FFFFFF" d="M138.5,146.5v1.3h0c0.2-0.5,0.4-0.8,0.8-1.1c0.4-0.2,0.8-0.4,1.3-0.3v0.7c-0.3,0-0.6,0-0.8,0.1
			c-0.3,0.1-0.5,0.2-0.7,0.4c-0.2,0.2-0.3,0.4-0.4,0.6s-0.2,0.5-0.2,0.8v3h-0.7v-5.6H138.5z"/>
		<path fill="#FFFFFF" d="M145.5,145.9c0.2,0,0.5-0.1,0.6-0.2c0.2-0.1,0.3-0.2,0.4-0.4c0.1-0.2,0.2-0.5,0.3-0.8h0.6v7.6h-0.7v-5.7
			h-2v-0.5C145,145.9,145.3,145.9,145.5,145.9z"/>
		<path fill="#FFFFFF" d="M151.5,151.3c0.3,0.3,0.6,0.4,1.1,0.4c0.5,0,0.8-0.1,1.1-0.3c0.3-0.2,0.5-0.5,0.6-0.8
			c0.2-0.3,0.3-0.7,0.3-1.1c0.1-0.4,0.1-0.8,0.1-1.1h0c-0.2,0.4-0.5,0.7-0.8,0.9c-0.4,0.2-0.8,0.3-1.2,0.3c-0.4,0-0.7-0.1-1-0.2
			s-0.6-0.3-0.8-0.5s-0.4-0.5-0.5-0.8c-0.1-0.3-0.2-0.7-0.2-1c0-0.4,0.1-0.7,0.2-1c0.1-0.3,0.3-0.6,0.5-0.8c0.2-0.2,0.5-0.4,0.8-0.5
			c0.3-0.1,0.7-0.2,1-0.2c0.5,0,0.9,0.1,1.2,0.2s0.6,0.4,0.8,0.7c0.2,0.3,0.4,0.7,0.5,1.3c0.1,0.5,0.2,1.1,0.2,1.9
			c0,0.2,0,0.4,0,0.6c0,0.2-0.1,0.5-0.1,0.8s-0.2,0.6-0.3,0.8c-0.1,0.3-0.3,0.5-0.5,0.8c-0.2,0.2-0.4,0.4-0.7,0.6
			c-0.3,0.1-0.7,0.2-1.1,0.2c-0.7,0-1.2-0.2-1.6-0.5c-0.4-0.3-0.6-0.8-0.7-1.5h0.7C151,150.7,151.2,151,151.5,151.3z M153.4,148.8
			c0.2-0.1,0.4-0.2,0.6-0.4c0.2-0.2,0.3-0.4,0.4-0.6s0.1-0.5,0.1-0.8c0-0.3,0-0.5-0.1-0.8c-0.1-0.2-0.2-0.4-0.3-0.6
			c-0.2-0.2-0.4-0.3-0.6-0.4s-0.5-0.2-0.9-0.2c-0.3,0-0.5,0.1-0.7,0.2c-0.2,0.1-0.4,0.2-0.6,0.4c-0.2,0.2-0.3,0.4-0.4,0.6
			s-0.1,0.5-0.1,0.8c0,0.3,0,0.5,0.1,0.8c0.1,0.2,0.2,0.5,0.4,0.6c0.2,0.2,0.3,0.3,0.6,0.4c0.2,0.1,0.5,0.2,0.8,0.2
			C152.9,148.9,153.2,148.9,153.4,148.8z"/>
	</g>
	<g>
		<path fill="#FFFFFF" d="M50.5,174.2v6.9h4.2v0.6h-5v-7.6H50.5z"/>
		<path fill="#FFFFFF" d="M55.5,177.2c0.1-0.2,0.3-0.4,0.5-0.6c0.2-0.1,0.4-0.3,0.7-0.3c0.3-0.1,0.5-0.1,0.9-0.1
			c0.2,0,0.5,0,0.7,0.1s0.5,0.1,0.6,0.3s0.3,0.3,0.5,0.5c0.1,0.2,0.2,0.5,0.2,0.9v2.9c0,0.3,0.1,0.4,0.4,0.4c0.1,0,0.1,0,0.2,0v0.6
			c-0.1,0-0.1,0-0.2,0c-0.1,0-0.1,0-0.2,0c-0.2,0-0.3,0-0.4-0.1c-0.1,0-0.2-0.1-0.2-0.2c-0.1-0.1-0.1-0.2-0.1-0.3c0-0.1,0-0.2,0-0.4
			h0c-0.1,0.2-0.2,0.3-0.4,0.5s-0.3,0.3-0.4,0.3c-0.2,0.1-0.3,0.2-0.5,0.2s-0.4,0.1-0.7,0.1c-0.3,0-0.5,0-0.7-0.1
			c-0.2-0.1-0.4-0.2-0.6-0.3c-0.2-0.1-0.3-0.3-0.4-0.5s-0.1-0.4-0.1-0.7c0-0.4,0.1-0.7,0.3-0.9c0.2-0.2,0.4-0.4,0.7-0.5
			c0.3-0.1,0.6-0.2,0.9-0.2c0.3,0,0.7-0.1,1.1-0.1c0.1,0,0.3,0,0.4-0.1c0.1,0,0.2-0.1,0.3-0.1c0.1-0.1,0.1-0.1,0.2-0.2
			c0-0.1,0.1-0.2,0.1-0.4c0-0.2,0-0.4-0.1-0.6c-0.1-0.1-0.2-0.3-0.3-0.3c-0.1-0.1-0.3-0.1-0.5-0.2c-0.2,0-0.4,0-0.6,0
			c-0.4,0-0.8,0.1-1,0.3c-0.3,0.2-0.4,0.5-0.4,1h-0.7C55.3,177.7,55.3,177.4,55.5,177.2z M58.8,178.8c0,0.1-0.1,0.1-0.2,0.2
			c-0.1,0-0.2,0.1-0.3,0.1c-0.3,0-0.6,0.1-0.9,0.1c-0.3,0-0.6,0.1-0.8,0.2c-0.2,0.1-0.5,0.2-0.6,0.3c-0.2,0.1-0.2,0.4-0.2,0.6
			c0,0.2,0,0.3,0.1,0.4c0.1,0.1,0.2,0.2,0.3,0.3s0.2,0.2,0.4,0.2s0.3,0.1,0.5,0.1c0.3,0,0.5,0,0.7-0.1c0.2-0.1,0.4-0.2,0.6-0.3
			c0.2-0.1,0.3-0.3,0.4-0.5c0.1-0.2,0.2-0.5,0.2-0.7L58.8,178.8L58.8,178.8z"/>
		<path fill="#FFFFFF" d="M64.6,181.8v-1h0c-0.2,0.4-0.4,0.6-0.8,0.8c-0.3,0.2-0.7,0.3-1.1,0.3c-0.3,0-0.6,0-0.9-0.1
			s-0.4-0.2-0.6-0.4c-0.2-0.2-0.3-0.4-0.3-0.6c-0.1-0.3-0.1-0.5-0.1-0.9v-3.5h0.7v3.6c0,0.5,0.1,0.9,0.3,1.1
			c0.2,0.3,0.6,0.4,1.1,0.4c0.3,0,0.5-0.1,0.7-0.2c0.2-0.1,0.4-0.3,0.5-0.5s0.2-0.4,0.3-0.7c0.1-0.3,0.1-0.5,0.1-0.8v-2.9h0.7v5.5
			H64.6z"/>
		<path fill="#FFFFFF" d="M67.1,176.3v0.9h0c0.1-0.3,0.4-0.6,0.7-0.8c0.3-0.2,0.7-0.3,1.1-0.3c0.4,0,0.7,0,1,0.1
			c0.3,0.1,0.5,0.2,0.6,0.4c0.2,0.2,0.3,0.4,0.3,0.7c0.1,0.3,0.1,0.6,0.1,0.9v3.5h-0.7v-3.4c0-0.2,0-0.4-0.1-0.7
			c0-0.2-0.1-0.4-0.2-0.5c-0.1-0.1-0.2-0.3-0.4-0.3c-0.2-0.1-0.4-0.1-0.7-0.1s-0.5,0-0.7,0.1c-0.2,0.1-0.4,0.2-0.5,0.4
			c-0.1,0.2-0.3,0.4-0.3,0.6c-0.1,0.2-0.1,0.5-0.1,0.7v3.2h-0.7v-5.5H67.1z"/>
		<path fill="#FFFFFF" d="M75.5,177.1c-0.2-0.2-0.6-0.3-1-0.3c-0.3,0-0.6,0.1-0.8,0.2c-0.2,0.1-0.4,0.3-0.6,0.5s-0.3,0.5-0.4,0.7
			c-0.1,0.3-0.1,0.6-0.1,0.9c0,0.3,0,0.6,0.1,0.9s0.2,0.5,0.4,0.7c0.2,0.2,0.4,0.4,0.6,0.5c0.2,0.1,0.5,0.2,0.8,0.2
			c0.2,0,0.4,0,0.6-0.1c0.2-0.1,0.3-0.2,0.5-0.3c0.1-0.1,0.3-0.3,0.3-0.5c0.1-0.2,0.1-0.4,0.2-0.6h0.7c-0.1,0.7-0.3,1.2-0.7,1.6
			c-0.4,0.4-0.9,0.6-1.5,0.6c-0.4,0-0.8-0.1-1.1-0.2c-0.3-0.2-0.6-0.4-0.8-0.6c-0.2-0.3-0.4-0.6-0.5-0.9c-0.1-0.3-0.2-0.7-0.2-1.1
			s0.1-0.8,0.2-1.1c0.1-0.3,0.3-0.7,0.5-0.9c0.2-0.3,0.5-0.5,0.8-0.6s0.7-0.2,1.1-0.2c0.6,0,1.1,0.2,1.5,0.5
			c0.4,0.3,0.6,0.8,0.7,1.4H76C75.9,177.6,75.8,177.3,75.5,177.1z"/>
		<path fill="#FFFFFF" d="M78.3,174.2v3h0c0.1-0.3,0.4-0.6,0.7-0.8c0.3-0.2,0.7-0.3,1.1-0.3c0.4,0,0.7,0,1,0.1
			c0.3,0.1,0.5,0.2,0.6,0.4c0.2,0.2,0.3,0.4,0.3,0.7c0.1,0.3,0.1,0.6,0.1,0.9v3.5h-0.7v-3.4c0-0.2,0-0.4-0.1-0.7
			c0-0.2-0.1-0.4-0.2-0.5c-0.1-0.1-0.2-0.3-0.4-0.3c-0.2-0.1-0.4-0.1-0.7-0.1c-0.3,0-0.5,0-0.7,0.1s-0.4,0.2-0.5,0.4
			c-0.1,0.2-0.3,0.4-0.3,0.6c-0.1,0.2-0.1,0.5-0.1,0.7v3.2h-0.7v-7.6H78.3z"/>
		<path fill="#FFFFFF" d="M87.1,174.2v3.3h4.5v-3.3h0.7v7.6h-0.7v-3.7h-4.5v3.7h-0.7v-7.6H87.1z"/>
		<path fill="#FFFFFF" d="M94.2,180c0.1,0.3,0.2,0.5,0.3,0.7c0.1,0.2,0.3,0.4,0.6,0.5c0.2,0.1,0.5,0.2,0.8,0.2
			c0.5,0,0.9-0.1,1.1-0.4c0.3-0.3,0.5-0.6,0.6-1h0.7c-0.1,0.6-0.4,1.1-0.8,1.4c-0.4,0.3-0.9,0.5-1.6,0.5c-0.4,0-0.8-0.1-1.1-0.2
			c-0.3-0.2-0.6-0.4-0.8-0.6s-0.3-0.6-0.4-0.9s-0.1-0.7-0.1-1.1c0-0.4,0-0.7,0.1-1.1s0.2-0.7,0.4-0.9s0.5-0.5,0.8-0.7
			c0.3-0.2,0.7-0.2,1.1-0.2c0.4,0,0.8,0.1,1.1,0.3s0.6,0.4,0.8,0.7c0.2,0.3,0.3,0.6,0.4,1c0.1,0.4,0.1,0.7,0.1,1.1h-4.2
			C94.1,179.5,94.2,179.7,94.2,180z M97.5,177.9c-0.1-0.2-0.2-0.4-0.3-0.6c-0.1-0.2-0.3-0.3-0.5-0.4c-0.2-0.1-0.5-0.2-0.7-0.2
			c-0.3,0-0.5,0.1-0.7,0.2c-0.2,0.1-0.4,0.3-0.5,0.4c-0.1,0.2-0.3,0.4-0.4,0.6c-0.1,0.2-0.1,0.5-0.2,0.7h3.5
			C97.7,178.4,97.6,178.2,97.5,177.9z"/>
		<path fill="#FFFFFF" d="M99.8,176.3v1.3h0c0.2-0.4,0.4-0.8,0.8-1c0.4-0.2,0.8-0.3,1.3-0.3v0.7c-0.3,0-0.6,0-0.8,0.1
			c-0.2,0.1-0.5,0.2-0.6,0.4c-0.2,0.2-0.3,0.4-0.4,0.6c-0.1,0.2-0.1,0.5-0.1,0.8v2.9h-0.7v-5.5H99.8z"/>
		<path fill="#FFFFFF" d="M102.9,180c0.1,0.3,0.2,0.5,0.3,0.7s0.3,0.4,0.6,0.5c0.2,0.1,0.5,0.2,0.8,0.2c0.5,0,0.9-0.1,1.1-0.4
			c0.3-0.3,0.5-0.6,0.6-1h0.7c-0.1,0.6-0.4,1.1-0.8,1.4c-0.4,0.3-0.9,0.5-1.6,0.5c-0.4,0-0.8-0.1-1.1-0.2c-0.3-0.2-0.6-0.4-0.8-0.6
			c-0.2-0.3-0.3-0.6-0.4-0.9c-0.1-0.3-0.1-0.7-0.1-1.1c0-0.4,0-0.7,0.1-1.1c0.1-0.3,0.2-0.7,0.4-0.9c0.2-0.3,0.5-0.5,0.8-0.7
			c0.3-0.2,0.7-0.2,1.1-0.2c0.4,0,0.8,0.1,1.1,0.3c0.3,0.2,0.6,0.4,0.8,0.7s0.3,0.6,0.4,1c0.1,0.4,0.1,0.7,0.1,1.1h-4.2
			C102.8,179.5,102.8,179.7,102.9,180z M106.2,177.9c-0.1-0.2-0.2-0.4-0.3-0.6c-0.1-0.2-0.3-0.3-0.5-0.4s-0.5-0.2-0.7-0.2
			c-0.3,0-0.5,0.1-0.7,0.2s-0.4,0.3-0.5,0.4c-0.1,0.2-0.3,0.4-0.4,0.6c-0.1,0.2-0.1,0.5-0.2,0.7h3.5
			C106.3,178.4,106.2,178.2,106.2,177.9z"/>
		<path fill="#FFFFFF" d="M52.8,186.9l3,7.6H55l-0.9-2.3h-3.4l-0.9,2.3h-0.8l3-7.6H52.8z M53.8,191.5l-1.5-3.9l-1.5,3.9H53.8z"/>
		<path fill="#FFFFFF" d="M56.9,189v1h0c0.2-0.4,0.4-0.7,0.8-0.9c0.3-0.2,0.7-0.3,1.2-0.3c0.4,0,0.8,0.1,1.1,0.2s0.6,0.4,0.8,0.6
			c0.2,0.3,0.4,0.6,0.5,0.9c0.1,0.3,0.1,0.7,0.1,1.1c0,0.4,0,0.8-0.1,1.1c-0.1,0.3-0.3,0.7-0.5,0.9c-0.2,0.3-0.5,0.5-0.8,0.6
			c-0.3,0.2-0.7,0.2-1.1,0.2c-0.2,0-0.4,0-0.6-0.1s-0.4-0.1-0.6-0.2c-0.2-0.1-0.3-0.2-0.4-0.4c-0.1-0.1-0.2-0.3-0.3-0.5h0v3h-0.7
			V189H56.9z M60.6,190.9c-0.1-0.3-0.2-0.5-0.3-0.7c-0.1-0.2-0.3-0.4-0.6-0.5c-0.2-0.1-0.5-0.2-0.8-0.2c-0.4,0-0.7,0.1-0.9,0.2
			s-0.4,0.3-0.6,0.5c-0.1,0.2-0.3,0.5-0.3,0.7c-0.1,0.3-0.1,0.6-0.1,0.9c0,0.3,0,0.6,0.1,0.8c0.1,0.3,0.2,0.5,0.3,0.7
			c0.2,0.2,0.3,0.4,0.6,0.5c0.2,0.1,0.5,0.2,0.9,0.2c0.3,0,0.6-0.1,0.8-0.2c0.2-0.1,0.4-0.3,0.6-0.5c0.1-0.2,0.3-0.5,0.3-0.7
			c0.1-0.3,0.1-0.6,0.1-0.8S60.6,191.2,60.6,190.9z"/>
		<path fill="#FFFFFF" d="M63,189v1h0c0.2-0.4,0.4-0.7,0.8-0.9c0.3-0.2,0.7-0.3,1.2-0.3c0.4,0,0.8,0.1,1.1,0.2s0.6,0.4,0.8,0.6
			c0.2,0.3,0.4,0.6,0.5,0.9s0.1,0.7,0.1,1.1c0,0.4,0,0.8-0.1,1.1s-0.3,0.7-0.5,0.9c-0.2,0.3-0.5,0.5-0.8,0.6
			c-0.3,0.2-0.7,0.2-1.1,0.2c-0.2,0-0.4,0-0.6-0.1s-0.4-0.1-0.6-0.2c-0.2-0.1-0.3-0.2-0.4-0.4c-0.1-0.1-0.2-0.3-0.3-0.5h0v3h-0.7
			V189H63z M66.6,190.9c-0.1-0.3-0.2-0.5-0.3-0.7s-0.3-0.4-0.6-0.5c-0.2-0.1-0.5-0.2-0.8-0.2c-0.4,0-0.7,0.1-0.9,0.2
			s-0.4,0.3-0.6,0.5c-0.1,0.2-0.3,0.5-0.3,0.7c-0.1,0.3-0.1,0.6-0.1,0.9c0,0.3,0,0.6,0.1,0.8c0.1,0.3,0.2,0.5,0.3,0.7
			c0.2,0.2,0.3,0.4,0.6,0.5c0.2,0.1,0.5,0.2,0.9,0.2c0.3,0,0.6-0.1,0.8-0.2c0.2-0.1,0.4-0.3,0.6-0.5c0.1-0.2,0.2-0.5,0.3-0.7
			c0.1-0.3,0.1-0.6,0.1-0.8S66.7,191.2,66.6,190.9z"/>
		<path fill="#FFFFFF" d="M69.1,186.9v7.6h-0.7v-7.6H69.1z"/>
		<path fill="#FFFFFF" d="M70.9,192.7c0.1,0.3,0.2,0.5,0.3,0.7s0.3,0.4,0.6,0.5c0.2,0.1,0.5,0.2,0.8,0.2c0.5,0,0.9-0.1,1.1-0.4
			c0.3-0.3,0.5-0.6,0.6-1H75c-0.1,0.6-0.4,1.1-0.8,1.4c-0.4,0.3-0.9,0.5-1.6,0.5c-0.4,0-0.8-0.1-1.1-0.2c-0.3-0.2-0.6-0.4-0.8-0.6
			c-0.2-0.3-0.3-0.6-0.4-0.9c-0.1-0.3-0.1-0.7-0.1-1.1c0-0.4,0-0.7,0.1-1.1c0.1-0.3,0.2-0.7,0.4-0.9c0.2-0.3,0.5-0.5,0.8-0.7
			c0.3-0.2,0.7-0.2,1.1-0.2c0.4,0,0.8,0.1,1.1,0.3c0.3,0.2,0.6,0.4,0.8,0.7c0.2,0.3,0.3,0.6,0.4,1c0.1,0.4,0.1,0.7,0.1,1.1h-4.2
			C70.8,192.2,70.8,192.4,70.9,192.7z M74.2,190.6c-0.1-0.2-0.2-0.4-0.3-0.6c-0.1-0.2-0.3-0.3-0.5-0.4s-0.5-0.2-0.7-0.2
			c-0.3,0-0.5,0.1-0.7,0.2s-0.4,0.3-0.5,0.4c-0.1,0.2-0.3,0.4-0.4,0.6c-0.1,0.2-0.1,0.5-0.2,0.7h3.5
			C74.3,191.1,74.3,190.9,74.2,190.6z"/>
		<path fill="#FFFFFF" d="M84.1,186.9v0.6h-2.6v6.9h-0.7v-6.9h-2.6v-0.6H84.1z"/>
		<path fill="#FFFFFF" d="M84.8,186.9l2.5,6.8h0l2.4-6.8h0.8l-2.8,7.6h-0.8l-2.8-7.6H84.8z"/>
	</g>
	<path fill="#FFFFFF" d="M40.1,173h-6.2c-1.1,0-1.9,0.9-1.9,1.9v6.2c0,1.1,0.9,1.9,1.9,1.9h6.2c1.1,0,1.9-0.9,1.9-1.9v-6.2
		C42,173.9,41.1,173,40.1,173z"/>
	<g>
		<path fill="#FFFFFF" d="M51.3,201.3c0-0.1-0.1-0.2-0.2-0.2s-0.2-0.1-0.3-0.1c-0.1,0-0.2,0-0.3,0c-0.1,0-0.2,0-0.3,0
			c-0.1,0-0.2,0.1-0.3,0.1c-0.1,0-0.1,0.1-0.2,0.2c0,0.1-0.1,0.2-0.1,0.3c0,0.1,0,0.2,0.1,0.2c0,0.1,0.1,0.1,0.2,0.2
			c0.1,0,0.1,0.1,0.2,0.1c0.1,0,0.2,0.1,0.2,0.1l0.6,0.1c0.1,0,0.2,0,0.4,0.1s0.2,0.1,0.3,0.2c0.1,0.1,0.2,0.2,0.2,0.3
			c0.1,0.1,0.1,0.2,0.1,0.4c0,0.2,0,0.3-0.1,0.5c-0.1,0.1-0.2,0.2-0.3,0.3s-0.3,0.1-0.4,0.2c-0.2,0-0.3,0.1-0.5,0.1
			c-0.4,0-0.7-0.1-1-0.3c-0.2-0.2-0.4-0.5-0.4-0.9h0.4c0,0.3,0.1,0.5,0.3,0.6c0.2,0.1,0.4,0.2,0.7,0.2c0.1,0,0.2,0,0.3,0
			c0.1,0,0.2-0.1,0.3-0.1s0.2-0.1,0.2-0.2c0.1-0.1,0.1-0.2,0.1-0.3c0-0.1,0-0.2-0.1-0.3c0-0.1-0.1-0.1-0.2-0.2s-0.1-0.1-0.2-0.1
			s-0.2-0.1-0.3-0.1l-0.5-0.1c-0.1,0-0.3-0.1-0.4-0.1c-0.1,0-0.2-0.1-0.3-0.2c-0.1-0.1-0.2-0.2-0.2-0.2c0-0.1-0.1-0.2-0.1-0.4
			c0-0.2,0-0.3,0.1-0.4s0.2-0.2,0.3-0.3c0.1-0.1,0.3-0.1,0.4-0.2c0.2,0,0.3-0.1,0.4-0.1c0.2,0,0.3,0,0.5,0.1c0.1,0,0.3,0.1,0.4,0.2
			c0.1,0.1,0.2,0.2,0.3,0.3s0.1,0.3,0.1,0.5h-0.4C51.4,201.5,51.4,201.4,51.3,201.3z"/>
		<path fill="#FFFFFF" d="M53,199.3v4.7h-0.4v-4.7H53z"/>
		<path fill="#FFFFFF" d="M54.2,199.3v0.7h-0.4v-0.7H54.2z M54.2,200.6v3.4h-0.4v-3.4H54.2z"/>
		<path fill="#FFFFFF" d="M57.6,204v-0.6h0c0,0.1-0.1,0.2-0.2,0.3c-0.1,0.1-0.2,0.2-0.3,0.2c-0.1,0.1-0.2,0.1-0.4,0.1
			c-0.1,0-0.2,0.1-0.4,0.1c-0.3,0-0.5,0-0.7-0.1c-0.2-0.1-0.3-0.2-0.5-0.4c-0.1-0.2-0.2-0.4-0.3-0.6c-0.1-0.2-0.1-0.4-0.1-0.7
			s0-0.5,0.1-0.7c0.1-0.2,0.2-0.4,0.3-0.6c0.1-0.2,0.3-0.3,0.5-0.4c0.2-0.1,0.4-0.1,0.7-0.1c0.1,0,0.2,0,0.4,0
			c0.1,0,0.2,0.1,0.3,0.1c0.1,0.1,0.2,0.1,0.3,0.2s0.1,0.2,0.2,0.3h0v-1.9h0.4v4.7H57.6z M55.3,202.8c0,0.2,0.1,0.3,0.2,0.5
			s0.2,0.2,0.3,0.3c0.1,0.1,0.3,0.1,0.5,0.1c0.2,0,0.4,0,0.6-0.1c0.2-0.1,0.3-0.2,0.4-0.3s0.2-0.3,0.2-0.5c0-0.2,0.1-0.3,0.1-0.5
			s0-0.3-0.1-0.5c0-0.2-0.1-0.3-0.2-0.5c-0.1-0.1-0.2-0.2-0.4-0.3c-0.2-0.1-0.3-0.1-0.6-0.1c-0.2,0-0.4,0-0.5,0.1
			c-0.1,0.1-0.3,0.2-0.3,0.3c-0.1,0.1-0.2,0.3-0.2,0.5c0,0.2-0.1,0.3-0.1,0.5S55.3,202.7,55.3,202.8z"/>
		<path fill="#FFFFFF" d="M59,202.9c0,0.2,0.1,0.3,0.2,0.4c0.1,0.1,0.2,0.2,0.3,0.3c0.1,0.1,0.3,0.1,0.5,0.1c0.3,0,0.5-0.1,0.7-0.2
			c0.2-0.2,0.3-0.4,0.4-0.6h0.4c-0.1,0.4-0.2,0.7-0.5,0.9c-0.2,0.2-0.6,0.3-1,0.3c-0.3,0-0.5,0-0.7-0.1c-0.2-0.1-0.4-0.2-0.5-0.4
			c-0.1-0.2-0.2-0.4-0.3-0.6c-0.1-0.2-0.1-0.4-0.1-0.7c0-0.2,0-0.4,0.1-0.7c0.1-0.2,0.1-0.4,0.3-0.6c0.1-0.2,0.3-0.3,0.5-0.4
			c0.2-0.1,0.4-0.2,0.7-0.2c0.3,0,0.5,0.1,0.7,0.2c0.2,0.1,0.3,0.3,0.5,0.4s0.2,0.4,0.3,0.6c0.1,0.2,0.1,0.5,0.1,0.7H59
			C59,202.6,59,202.7,59,202.9z M61.1,201.6c-0.1-0.1-0.1-0.3-0.2-0.4s-0.2-0.2-0.3-0.3c-0.1-0.1-0.3-0.1-0.4-0.1
			c-0.2,0-0.3,0-0.5,0.1c-0.1,0.1-0.2,0.2-0.3,0.3c-0.1,0.1-0.2,0.2-0.2,0.4s-0.1,0.3-0.1,0.4h2.2C61.2,201.9,61.1,201.8,61.1,201.6
			z"/>
		<path fill="#FFFFFF" d="M65.3,200.6v0.3h-0.7v2.3c0,0.1,0,0.2,0.1,0.3c0,0.1,0.1,0.1,0.3,0.1c0.1,0,0.2,0,0.4,0v0.3
			c-0.1,0-0.1,0-0.2,0c-0.1,0-0.1,0-0.2,0c-0.3,0-0.5-0.1-0.6-0.2c-0.1-0.1-0.2-0.3-0.2-0.6V201h-0.6v-0.3h0.6v-1h0.4v1H65.3z"/>
		<path fill="#FFFFFF" d="M68,200.7c0.2,0.1,0.4,0.2,0.5,0.4c0.1,0.2,0.2,0.4,0.3,0.6s0.1,0.4,0.1,0.7c0,0.2,0,0.5-0.1,0.7
			c-0.1,0.2-0.2,0.4-0.3,0.6c-0.1,0.2-0.3,0.3-0.5,0.4c-0.2,0.1-0.4,0.1-0.7,0.1s-0.5,0-0.7-0.1c-0.2-0.1-0.4-0.2-0.5-0.4
			c-0.1-0.2-0.2-0.4-0.3-0.6c-0.1-0.2-0.1-0.4-0.1-0.7c0-0.2,0-0.5,0.1-0.7s0.2-0.4,0.3-0.6c0.1-0.2,0.3-0.3,0.5-0.4
			c0.2-0.1,0.4-0.1,0.7-0.1S67.8,200.6,68,200.7z M66.8,201c-0.1,0.1-0.3,0.2-0.4,0.3c-0.1,0.1-0.2,0.3-0.2,0.5
			c-0.1,0.2-0.1,0.3-0.1,0.5c0,0.2,0,0.4,0.1,0.5c0,0.2,0.1,0.3,0.2,0.5c0.1,0.1,0.2,0.2,0.4,0.3c0.1,0.1,0.3,0.1,0.5,0.1
			s0.4,0,0.5-0.1c0.1-0.1,0.3-0.2,0.4-0.3c0.1-0.1,0.2-0.3,0.2-0.5c0.1-0.2,0.1-0.3,0.1-0.5c0-0.2,0-0.4-0.1-0.5
			c0-0.2-0.1-0.3-0.2-0.5c-0.1-0.1-0.2-0.2-0.4-0.3s-0.3-0.1-0.5-0.1S66.9,200.9,66.8,201z"/>
		<path fill="#FFFFFF" d="M71.8,199.3v4.7h-0.4v-4.7H71.8z"/>
		<path fill="#FFFFFF" d="M72.7,201.1c0.1-0.1,0.2-0.3,0.3-0.4s0.3-0.2,0.4-0.2c0.2,0,0.3-0.1,0.5-0.1c0.1,0,0.3,0,0.4,0
			c0.1,0,0.3,0.1,0.4,0.2c0.1,0.1,0.2,0.2,0.3,0.3s0.1,0.3,0.1,0.6v1.8c0,0.2,0.1,0.2,0.2,0.2c0,0,0.1,0,0.1,0v0.3c0,0-0.1,0-0.1,0
			c0,0-0.1,0-0.1,0c-0.1,0-0.2,0-0.3,0c-0.1,0-0.1-0.1-0.1-0.1c0-0.1-0.1-0.1-0.1-0.2c0-0.1,0-0.2,0-0.2h0c-0.1,0.1-0.1,0.2-0.2,0.3
			c-0.1,0.1-0.2,0.2-0.3,0.2c-0.1,0.1-0.2,0.1-0.3,0.1c-0.1,0-0.3,0-0.4,0c-0.2,0-0.3,0-0.4-0.1c-0.1,0-0.3-0.1-0.4-0.2
			c-0.1-0.1-0.2-0.2-0.2-0.3c-0.1-0.1-0.1-0.3-0.1-0.4c0-0.2,0.1-0.4,0.2-0.6c0.1-0.1,0.2-0.2,0.4-0.3c0.2-0.1,0.4-0.1,0.6-0.1
			c0.2,0,0.4-0.1,0.7-0.1c0.1,0,0.2,0,0.2,0s0.1,0,0.2-0.1s0.1-0.1,0.1-0.1c0-0.1,0-0.1,0-0.2c0-0.1,0-0.3-0.1-0.3
			c0-0.1-0.1-0.2-0.2-0.2c-0.1-0.1-0.2-0.1-0.3-0.1c-0.1,0-0.2,0-0.3,0c-0.3,0-0.5,0.1-0.6,0.2s-0.3,0.3-0.3,0.6h-0.4
			C72.5,201.5,72.6,201.3,72.7,201.1z M74.7,202.2c0,0-0.1,0.1-0.2,0.1c-0.1,0-0.1,0-0.2,0c-0.2,0-0.4,0.1-0.5,0.1
			c-0.2,0-0.4,0.1-0.5,0.1s-0.3,0.1-0.4,0.2c-0.1,0.1-0.1,0.2-0.1,0.4c0,0.1,0,0.2,0.1,0.3s0.1,0.2,0.2,0.2s0.2,0.1,0.2,0.1
			c0.1,0,0.2,0,0.3,0c0.2,0,0.3,0,0.5-0.1c0.1,0,0.3-0.1,0.4-0.2c0.1-0.1,0.2-0.2,0.3-0.3s0.1-0.3,0.1-0.4L74.7,202.2L74.7,202.2z"
			/>
		<path fill="#FFFFFF" d="M78.3,204v-0.6h0c-0.1,0.2-0.3,0.4-0.5,0.5s-0.4,0.2-0.7,0.2c-0.2,0-0.4,0-0.5-0.1
			c-0.2-0.1-0.3-0.1-0.4-0.3s-0.2-0.2-0.2-0.4c0-0.2-0.1-0.3-0.1-0.5v-2.2h0.4v2.2c0,0.3,0.1,0.5,0.2,0.7c0.1,0.2,0.4,0.2,0.7,0.2
			c0.2,0,0.3,0,0.5-0.1c0.1-0.1,0.2-0.2,0.3-0.3c0.1-0.1,0.1-0.3,0.2-0.4s0.1-0.3,0.1-0.5v-1.8h0.4v3.4H78.3z"/>
		<path fill="#FFFFFF" d="M79.9,200.6v0.6h0c0.1-0.2,0.2-0.4,0.4-0.5s0.4-0.2,0.7-0.2c0.2,0,0.4,0,0.6,0.1c0.2,0.1,0.3,0.1,0.4,0.3
			c0.1,0.1,0.2,0.2,0.2,0.4s0.1,0.3,0.1,0.5v2.2h-0.4v-2.1c0-0.1,0-0.3,0-0.4c0-0.1-0.1-0.2-0.1-0.3s-0.2-0.2-0.3-0.2
			c-0.1-0.1-0.2-0.1-0.4-0.1s-0.3,0-0.4,0.1c-0.1,0.1-0.2,0.1-0.3,0.2c-0.1,0.1-0.2,0.2-0.2,0.4c-0.1,0.1-0.1,0.3-0.1,0.5v2h-0.4
			v-3.4H79.9z"/>
		<path fill="#FFFFFF" d="M85.1,201.1c-0.2-0.1-0.4-0.2-0.6-0.2c-0.2,0-0.4,0-0.5,0.1s-0.3,0.2-0.4,0.3c-0.1,0.1-0.2,0.3-0.2,0.5
			c-0.1,0.2-0.1,0.3-0.1,0.5c0,0.2,0,0.4,0.1,0.5c0,0.2,0.1,0.3,0.2,0.5c0.1,0.1,0.2,0.2,0.4,0.3c0.1,0.1,0.3,0.1,0.5,0.1
			c0.1,0,0.2,0,0.4-0.1c0.1,0,0.2-0.1,0.3-0.2c0.1-0.1,0.2-0.2,0.2-0.3c0.1-0.1,0.1-0.2,0.1-0.4h0.4c-0.1,0.4-0.2,0.7-0.5,1
			c-0.2,0.2-0.6,0.3-0.9,0.3c-0.3,0-0.5,0-0.7-0.1c-0.2-0.1-0.4-0.2-0.5-0.4c-0.1-0.2-0.2-0.4-0.3-0.6c-0.1-0.2-0.1-0.4-0.1-0.7
			c0-0.2,0-0.5,0.1-0.7c0.1-0.2,0.2-0.4,0.3-0.6c0.1-0.2,0.3-0.3,0.5-0.4c0.2-0.1,0.4-0.1,0.7-0.1c0.4,0,0.7,0.1,0.9,0.3
			c0.3,0.2,0.4,0.5,0.4,0.9h-0.4C85.3,201.4,85.2,201.2,85.1,201.1z"/>
		<path fill="#FFFFFF" d="M86.8,199.3v1.9h0c0.1-0.2,0.2-0.4,0.4-0.5c0.2-0.1,0.4-0.2,0.7-0.2c0.2,0,0.4,0,0.6,0.1
			c0.2,0.1,0.3,0.1,0.4,0.3c0.1,0.1,0.2,0.2,0.2,0.4c0,0.2,0.1,0.3,0.1,0.5v2.2h-0.4v-2.1c0-0.1,0-0.3,0-0.4c0-0.1-0.1-0.2-0.1-0.3
			c-0.1-0.1-0.2-0.2-0.3-0.2c-0.1-0.1-0.2-0.1-0.4-0.1s-0.3,0-0.4,0.1c-0.1,0.1-0.2,0.1-0.3,0.2s-0.2,0.2-0.2,0.4
			c-0.1,0.1-0.1,0.3-0.1,0.5v2h-0.4v-4.7H86.8z"/>
		<path fill="#FFFFFF" d="M94,199.3c0.2,0,0.4,0,0.5,0.1c0.2,0,0.3,0.1,0.5,0.2s0.2,0.2,0.3,0.4c0.1,0.2,0.1,0.3,0.1,0.5
			c0,0.3-0.1,0.6-0.2,0.8s-0.4,0.4-0.7,0.4v0c0.2,0,0.3,0.1,0.4,0.1c0.1,0.1,0.2,0.1,0.2,0.2c0.1,0.1,0.1,0.2,0.1,0.3s0,0.2,0.1,0.4
			c0,0.1,0,0.2,0,0.3c0,0.1,0,0.2,0,0.3c0,0.1,0,0.2,0.1,0.3s0.1,0.2,0.1,0.2H95c0,0,0-0.1-0.1-0.2c0-0.1,0-0.1,0-0.2
			c0-0.1,0-0.1,0-0.2s0-0.1,0-0.2c0-0.2,0-0.3,0-0.5c0-0.2-0.1-0.3-0.1-0.4c-0.1-0.1-0.2-0.2-0.3-0.3c-0.1-0.1-0.3-0.1-0.5-0.1h-1.7
			v2.1h-0.4v-4.7H94z M93.9,201.5c0.1,0,0.3,0,0.4-0.1c0.1,0,0.2-0.1,0.3-0.2s0.2-0.2,0.2-0.3s0.1-0.2,0.1-0.4
			c0-0.3-0.1-0.5-0.2-0.7s-0.4-0.2-0.8-0.2h-1.7v1.8H93.9z"/>
		<path fill="#FFFFFF" d="M96.4,202.9c0,0.2,0.1,0.3,0.2,0.4c0.1,0.1,0.2,0.2,0.3,0.3c0.1,0.1,0.3,0.1,0.5,0.1
			c0.3,0,0.5-0.1,0.7-0.2c0.2-0.2,0.3-0.4,0.4-0.6h0.4c-0.1,0.4-0.2,0.7-0.5,0.9c-0.2,0.2-0.6,0.3-1,0.3c-0.3,0-0.5,0-0.7-0.1
			c-0.2-0.1-0.4-0.2-0.5-0.4c-0.1-0.2-0.2-0.4-0.3-0.6c-0.1-0.2-0.1-0.4-0.1-0.7c0-0.2,0-0.4,0.1-0.7c0.1-0.2,0.1-0.4,0.3-0.6
			c0.1-0.2,0.3-0.3,0.5-0.4c0.2-0.1,0.4-0.2,0.7-0.2c0.3,0,0.5,0.1,0.7,0.2c0.2,0.1,0.3,0.3,0.5,0.4s0.2,0.4,0.3,0.6
			c0.1,0.2,0.1,0.5,0.1,0.7h-2.6C96.4,202.6,96.4,202.7,96.4,202.9z M98.5,201.6c-0.1-0.1-0.1-0.3-0.2-0.4S98,201,97.9,201
			c-0.1-0.1-0.3-0.1-0.4-0.1c-0.2,0-0.3,0-0.5,0.1c-0.1,0.1-0.2,0.2-0.3,0.3c-0.1,0.1-0.2,0.2-0.2,0.4s-0.1,0.3-0.1,0.4h2.2
			C98.5,201.9,98.5,201.8,98.5,201.6z"/>
		<path fill="#FFFFFF" d="M99.9,200.6v0.6h0c0.1-0.2,0.3-0.4,0.4-0.5c0.2-0.1,0.4-0.2,0.7-0.2c0.2,0,0.4,0.1,0.6,0.2
			c0.2,0.1,0.3,0.3,0.4,0.5c0.1-0.2,0.2-0.4,0.4-0.5c0.2-0.1,0.4-0.2,0.6-0.2c0.7,0,1.1,0.4,1.1,1.2v2.3h-0.4v-2.3
			c0-0.3-0.1-0.5-0.2-0.6c-0.1-0.1-0.3-0.2-0.6-0.2c-0.2,0-0.3,0-0.4,0.1c-0.1,0.1-0.2,0.2-0.3,0.3c-0.1,0.1-0.1,0.2-0.1,0.4
			s0,0.3,0,0.5v1.9h-0.4v-2.3c0-0.1,0-0.2,0-0.3c0-0.1-0.1-0.2-0.1-0.3c-0.1-0.1-0.1-0.1-0.2-0.2c-0.1,0-0.2-0.1-0.3-0.1
			c-0.2,0-0.3,0-0.5,0.1c-0.1,0.1-0.2,0.2-0.3,0.3c-0.1,0.1-0.1,0.2-0.2,0.4c0,0.2-0.1,0.3-0.1,0.5v1.9h-0.4v-3.4H99.9z"/>
		<path fill="#FFFFFF" d="M107.1,200.7c0.2,0.1,0.4,0.2,0.5,0.4c0.1,0.2,0.2,0.4,0.3,0.6s0.1,0.4,0.1,0.7c0,0.2,0,0.5-0.1,0.7
			c-0.1,0.2-0.2,0.4-0.3,0.6c-0.1,0.2-0.3,0.3-0.5,0.4c-0.2,0.1-0.4,0.1-0.7,0.1c-0.3,0-0.5,0-0.7-0.1c-0.2-0.1-0.4-0.2-0.5-0.4
			c-0.1-0.2-0.2-0.4-0.3-0.6c-0.1-0.2-0.1-0.4-0.1-0.7c0-0.2,0-0.5,0.1-0.7c0.1-0.2,0.2-0.4,0.3-0.6c0.1-0.2,0.3-0.3,0.5-0.4
			c0.2-0.1,0.4-0.1,0.7-0.1C106.7,200.5,106.9,200.6,107.1,200.7z M105.9,201c-0.1,0.1-0.3,0.2-0.4,0.3c-0.1,0.1-0.2,0.3-0.2,0.5
			c-0.1,0.2-0.1,0.3-0.1,0.5c0,0.2,0,0.4,0.1,0.5c0.1,0.2,0.1,0.3,0.2,0.5c0.1,0.1,0.2,0.2,0.4,0.3c0.1,0.1,0.3,0.1,0.5,0.1
			s0.4,0,0.5-0.1c0.1-0.1,0.3-0.2,0.4-0.3c0.1-0.1,0.2-0.3,0.2-0.5c0.1-0.2,0.1-0.3,0.1-0.5c0-0.2,0-0.4-0.1-0.5
			c-0.1-0.2-0.1-0.3-0.2-0.5c-0.1-0.1-0.2-0.2-0.4-0.3s-0.3-0.1-0.5-0.1S106,200.9,105.9,201z"/>
		<path fill="#FFFFFF" d="M110,200.6v0.3h-0.7v2.3c0,0.1,0,0.2,0.1,0.3s0.1,0.1,0.3,0.1c0.1,0,0.2,0,0.4,0v0.3c-0.1,0-0.1,0-0.2,0
			c-0.1,0-0.1,0-0.2,0c-0.3,0-0.5-0.1-0.6-0.2c-0.1-0.1-0.2-0.3-0.2-0.6V201h-0.6v-0.3h0.6v-1h0.4v1H110z"/>
		<path fill="#FFFFFF" d="M110.9,202.9c0,0.2,0.1,0.3,0.2,0.4s0.2,0.2,0.3,0.3c0.1,0.1,0.3,0.1,0.5,0.1c0.3,0,0.5-0.1,0.7-0.2
			c0.2-0.2,0.3-0.4,0.4-0.6h0.4c-0.1,0.4-0.2,0.7-0.5,0.9c-0.2,0.2-0.6,0.3-1,0.3c-0.3,0-0.5,0-0.7-0.1c-0.2-0.1-0.4-0.2-0.5-0.4
			c-0.1-0.2-0.2-0.4-0.3-0.6c-0.1-0.2-0.1-0.4-0.1-0.7c0-0.2,0-0.4,0.1-0.7c0.1-0.2,0.1-0.4,0.3-0.6c0.1-0.2,0.3-0.3,0.5-0.4
			c0.2-0.1,0.4-0.2,0.7-0.2c0.3,0,0.5,0.1,0.7,0.2c0.2,0.1,0.3,0.3,0.5,0.4s0.2,0.4,0.3,0.6c0.1,0.2,0.1,0.5,0.1,0.7h-2.6
			C110.8,202.6,110.8,202.7,110.9,202.9z M112.9,201.6c-0.1-0.1-0.1-0.3-0.2-0.4s-0.2-0.2-0.3-0.3c-0.1-0.1-0.3-0.1-0.4-0.1
			c-0.2,0-0.3,0-0.5,0.1c-0.1,0.1-0.2,0.2-0.3,0.3s-0.2,0.2-0.2,0.4c-0.1,0.1-0.1,0.3-0.1,0.4h2.2
			C113,201.9,112.9,201.8,112.9,201.6z"/>
		<path fill="#FFFFFF" d="M117.7,199.3l1.8,4.7h-0.5l-0.6-1.5h-2.1l-0.6,1.5h-0.5l1.9-4.7H117.7z M118.4,202.2l-0.9-2.4l-0.9,2.4
			H118.4z"/>
		<path fill="#FFFFFF" d="M120.3,200.6v0.6h0c0.1-0.2,0.3-0.4,0.5-0.5c0.2-0.1,0.5-0.2,0.7-0.2c0.3,0,0.5,0,0.7,0.1
			c0.2,0.1,0.3,0.2,0.5,0.4c0.1,0.2,0.2,0.4,0.3,0.6c0.1,0.2,0.1,0.4,0.1,0.7s0,0.5-0.1,0.7c-0.1,0.2-0.2,0.4-0.3,0.6
			c-0.1,0.2-0.3,0.3-0.5,0.4c-0.2,0.1-0.4,0.1-0.7,0.1c-0.1,0-0.2,0-0.4,0c-0.1,0-0.2-0.1-0.3-0.1c-0.1-0.1-0.2-0.1-0.3-0.2
			s-0.1-0.2-0.2-0.3h0v1.9h-0.4v-4.6H120.3z M122.5,201.8c0-0.2-0.1-0.3-0.2-0.5c-0.1-0.1-0.2-0.2-0.3-0.3s-0.3-0.1-0.5-0.1
			c-0.2,0-0.4,0-0.6,0.1s-0.3,0.2-0.4,0.3c-0.1,0.1-0.2,0.3-0.2,0.5c0,0.2-0.1,0.4-0.1,0.5c0,0.2,0,0.3,0.1,0.5s0.1,0.3,0.2,0.5
			s0.2,0.2,0.4,0.3c0.2,0.1,0.3,0.1,0.6,0.1c0.2,0,0.4,0,0.5-0.1c0.1-0.1,0.3-0.2,0.3-0.3s0.2-0.3,0.2-0.5c0-0.2,0.1-0.3,0.1-0.5
			S122.6,202,122.5,201.8z"/>
		<path fill="#FFFFFF" d="M124,200.6v0.6h0c0.1-0.2,0.3-0.4,0.5-0.5c0.2-0.1,0.5-0.2,0.7-0.2c0.3,0,0.5,0,0.7,0.1
			c0.2,0.1,0.3,0.2,0.5,0.4c0.1,0.2,0.2,0.4,0.3,0.6c0.1,0.2,0.1,0.4,0.1,0.7s0,0.5-0.1,0.7c-0.1,0.2-0.2,0.4-0.3,0.6
			c-0.1,0.2-0.3,0.3-0.5,0.4c-0.2,0.1-0.4,0.1-0.7,0.1c-0.1,0-0.2,0-0.4,0c-0.1,0-0.2-0.1-0.3-0.1c-0.1-0.1-0.2-0.1-0.3-0.2
			s-0.1-0.2-0.2-0.3h0v1.9h-0.4v-4.6H124z M126.3,201.8c0-0.2-0.1-0.3-0.2-0.5c-0.1-0.1-0.2-0.2-0.3-0.3c-0.1-0.1-0.3-0.1-0.5-0.1
			c-0.2,0-0.4,0-0.6,0.1s-0.3,0.2-0.4,0.3s-0.2,0.3-0.2,0.5c0,0.2-0.1,0.4-0.1,0.5c0,0.2,0,0.3,0.1,0.5c0,0.2,0.1,0.3,0.2,0.5
			c0.1,0.1,0.2,0.2,0.4,0.3c0.2,0.1,0.3,0.1,0.6,0.1c0.2,0,0.4,0,0.5-0.1c0.1-0.1,0.3-0.2,0.3-0.3c0.1-0.1,0.2-0.3,0.2-0.5
			c0-0.2,0.1-0.3,0.1-0.5S126.3,202,126.3,201.8z"/>
	</g>
</g>
</svg>
