<?xml version="1.0" encoding="utf-8"?>
<!-- Generator: Adobe Illustrator 18.0.0, SVG Export Plug-In . SVG Version: 6.00 Build 0)  -->
<!DOCTYPE svg PUBLIC "-//W3C//DTD SVG 1.1//EN" "http://www.w3.org/Graphics/SVG/1.1/DTD/svg11.dtd">
<svg version="1.1" id="Layer_1" xmlns="http://www.w3.org/2000/svg" xmlns:xlink="http://www.w3.org/1999/xlink" x="0px" y="0px"
	 viewBox="0 0 255.4 55.7" enable-background="new 0 0 255.4 55.7" xml:space="preserve">
<g>
	<path fill="#FFFFFF" d="M4.9,8.5h2.3v31h15.2v2H4.9V8.5z"/>
	<path fill="#FFFFFF" d="M26.2,35.5c0-5.3,4.8-7.9,15.5-9.1c0-3.7-1-7.6-5.7-7.6c-3.2,0-6,1.6-7.7,2.8l-1-1.7c1.7-1.2,5.1-3.1,9-3.1
		c5.7,0,7.6,4.1,7.6,9.3v15.4h-1.9l-0.2-3.1h-0.2c-2.5,2-5.3,3.7-8.5,3.7C29.4,42.1,26.2,40,26.2,35.5z M41.8,36.3v-8.2
		c-9.9,1.1-13.3,3.5-13.3,7.2c0,3.5,2.3,4.8,5.1,4.8C36.4,40.2,38.8,38.8,41.8,36.3z"/>
	<path fill="#FFFFFF" d="M52.2,32.9V17.5h2.2v15.1c0,5.1,1.6,7.5,5.5,7.5c2.9,0,5-1.5,7.8-4.9V17.5h2.2v24h-1.9l-0.2-4h-0.1
		c-2.3,2.8-4.8,4.6-8.2,4.6C54.5,42.1,52.2,39.1,52.2,32.9z"/>
	<path fill="#FFFFFF" d="M79,17.5h1.9l0.2,3.7h0.2c2.5-2.5,5-4.3,8.2-4.3c5,0,7.3,3,7.3,9.2v15.4h-2.2V26.4c0-5.1-1.6-7.5-5.5-7.5
		c-2.8,0-4.9,1.5-7.8,4.5v18.1H79V17.5z"/>
	<path fill="#FFFFFF" d="M103.5,29.5c0-8.1,5.1-12.7,11-12.7c3.3,0,5.4,1.5,7.1,3l-1.3,1.6c-1.5-1.5-3.4-2.6-5.7-2.6
		c-4.9,0-8.7,4.4-8.7,10.7c0,6.3,3.5,10.6,8.7,10.6c2.5,0,4.8-1.2,6.4-2.8l1.2,1.5c-2.1,1.8-4.6,3.2-7.7,3.2
		C108.2,42.1,103.5,37.5,103.5,29.5z"/>
	<path fill="#FFFFFF" d="M128,5.5h2.2v15.7c2.5-2.5,5-4.4,8.3-4.4c5,0,7.2,3,7.2,9.2v15.4h-2.2V26.4c0-5.1-1.6-7.5-5.5-7.5
		c-2.8,0-4.9,1.5-7.9,4.5v18.1H128V5.5z"/>
	<path fill="#FFFFFF" d="M164.6,8.5h2.3V23h17.7V8.5h2.3v33h-2.3V25h-17.7v16.5h-2.3V8.5z"/>
	<path fill="#FFFFFF" d="M194.3,29.5c0-7.9,5.1-12.7,10.5-12.7c5.7,0,9.2,4.1,9.2,11.1c0,0.6,0,1.2-0.1,1.8h-17.3
		c0.1,6.1,3.7,10.4,9.1,10.4c2.6,0,4.7-0.8,6.5-2.1l0.9,1.7c-1.9,1.1-4.1,2.4-7.6,2.4C199.3,42.1,194.3,37.4,194.3,29.5z M211.9,28
		c0-6.2-2.8-9.2-7-9.2c-4.1,0-7.8,3.5-8.3,9.2H211.9z"/>
	<path fill="#FFFFFF" d="M220.5,17.5h1.9l0.2,4.5h0.1c1.6-3,4-5.1,6.8-5.1c0.9,0,1.6,0.1,2.4,0.5l-0.5,2c-0.8-0.3-1.2-0.4-2.2-0.4
		c-2.2,0-4.7,1.7-6.6,6.2v16.4h-2.2V17.5z"/>
	<path fill="#FFFFFF" d="M233.8,29.5c0-7.9,5.1-12.7,10.5-12.7c5.7,0,9.2,4.1,9.2,11.1c0,0.6,0,1.2-0.1,1.8h-17.3
		c0.1,6.1,3.7,10.4,9.1,10.4c2.6,0,4.7-0.8,6.5-2.1l0.9,1.7c-1.9,1.1-4,2.4-7.6,2.4C238.8,42.1,233.8,37.4,233.8,29.5z M251.4,28
		c0-6.2-2.8-9.2-7-9.2c-4.1,0-7.8,3.5-8.3,9.2H251.4z"/>
</g>
</svg>
