<?xml version="1.0" encoding="utf-8"?>
<!-- Generator: Adobe Illustrator 18.0.0, SVG Export Plug-In . SVG Version: 6.00 Build 0)  -->
<!DOCTYPE svg PUBLIC "-//W3C//DTD SVG 1.1//EN" "http://www.w3.org/Graphics/SVG/1.1/DTD/svg11.dtd">
<svg version="1.1" id="Layer_1" xmlns="http://www.w3.org/2000/svg" xmlns:xlink="http://www.w3.org/1999/xlink" x="0px" y="0px"
	 viewBox="0 0 400 156.5" enable-background="new 0 0 400 156.5" xml:space="preserve">
<path fill-rule="evenodd" clip-rule="evenodd" fill="#999999" d="M389.9,59.7c-9.5-5.2-21.6-1.4-26.9,8.3l-15.7,28.7L331.6,68
	c-0.7-1.3-1.6-2.6-2.6-3.7c-1.5-1.8-3.4-3.4-5.6-4.6c-3-1.6-6.2-2.4-9.4-2.3c-3.2,0-6.4,0.7-9.4,2.3c-2.2,1.2-4.1,2.8-5.6,4.6
	c-1,1.1-1.8,2.3-2.6,3.7l-15.6,28.6L265.3,68c-0.7-1.3-1.6-2.6-2.6-3.7c-1.5-1.8-3.4-3.4-5.6-4.6c-3-1.6-6.2-2.4-9.4-2.3
	c-3.2,0-6.4,0.7-9.4,2.3c-2.2,1.2-4.1,2.8-5.6,4.6c-1,1.1-1.8,2.3-2.6,3.7l-15.5,28.4L199.2,68c-0.7-1.3-1.6-2.6-2.6-3.7
	c-1.5-1.8-3.4-3.4-5.6-4.6c-3-1.6-6.2-2.4-9.4-2.3c-3.2,0-6.4,0.7-9.4,2.3c-2.2,1.2-4.1,2.8-5.6,4.6c-1,1.1-1.8,2.3-2.6,3.7
	l-15.4,28.2l-46.7-85.5C98.4,3.8,91.3-0.1,84.1,0c-7.2-0.1-14.3,3.8-18,10.6L2.5,127c-5.3,9.7-1.9,22,7.6,27.1
	c9.5,5.2,21.6,1.4,26.9-8.3l47.1-86.3l47.1,86.3c1.4,2.6,3.3,4.7,5.5,6.4c0.9,0.7,1.8,1.3,2.8,1.9c2.8,1.6,5.9,2.3,9,2.3
	c0.1,0,0.2,0,0.3,0c0.1,0,0.2,0,0.3,0c3.1,0,6.2-0.8,9-2.3c1-0.6,1.9-1.2,2.8-1.9c2.2-1.7,4.1-3.8,5.5-6.4l15.3-28l15.3,28
	c3,5.6,8.3,9.2,14.1,10.3c0.2,0,0.4,0.1,0.6,0.1c0.4,0.1,0.8,0.1,1.2,0.2c0.3,0,0.6,0,0.9,0.1c0.3,0,0.7,0,1,0c0.3,0,0.7,0,1,0
	c0.3,0,0.6,0,0.9-0.1c0.4,0,0.8-0.1,1.2-0.2c0.2,0,0.4-0.1,0.6-0.1c5.7-1.1,11-4.7,14.1-10.3l15.3-28l15.3,28
	c3.4,6.3,9.7,10.1,16.2,10.6c0,0,0.1,0,0.1,0c0.5,0,1,0.1,1.5,0.1c0.5,0,1,0,1.5-0.1c0,0,0.1,0,0.1,0c6.6-0.5,12.8-4.3,16.2-10.6
	l15.3-28l15.3,28c3.7,6.8,10.8,10.7,17.9,10.6c7.1,0.1,14.2-3.8,17.9-10.6l32.2-59.1C402.8,77,399.4,64.8,389.9,59.7z"/>
</svg>
