<?xml version="1.0" encoding="utf-8"?>
<!-- Generator: Adobe Illustrator 18.0.0, SVG Export Plug-In . SVG Version: 6.00 Build 0)  -->
<!DOCTYPE svg PUBLIC "-//W3C//DTD SVG 1.1//EN" "http://www.w3.org/Graphics/SVG/1.1/DTD/svg11.dtd">
<svg version="1.1" id="Layer_1" xmlns="http://www.w3.org/2000/svg" xmlns:xlink="http://www.w3.org/1999/xlink" x="0px" y="0px"
	 viewBox="0 0 270.4 60.2" enable-background="new 0 0 270.4 60.2" xml:space="preserve">
<g>
	<path fill="#FFFFFF" d="M12.9,11.4H1.6V9.2h25.2v2.2H15.4v33.4h-2.5V11.4z"/>
	<path fill="#FFFFFF" d="M30.6,18.9h2.1l0.2,4.8H33c1.7-3.2,4.3-5.5,7.3-5.5c1,0,1.7,0.1,2.6,0.5L42.4,21c-0.9-0.3-1.3-0.4-2.4-0.4
		c-2.3,0-5.1,1.8-7.1,6.6v17.7h-2.4V18.9z"/>
	<path fill="#FFFFFF" d="M44.8,38.3c0-5.7,5.2-8.5,16.7-9.8c0.1-3.9-1-8.2-6.2-8.2c-3.5,0-6.5,1.7-8.3,3L46,21.6
		c1.8-1.3,5.5-3.3,9.7-3.3c6.1,0,8.2,4.4,8.2,10v16.6h-2.1l-0.2-3.3h-0.2c-2.6,2.1-5.8,4-9.2,4C48.2,45.5,44.8,43.3,44.8,38.3z
		 M61.5,39.2v-8.8c-10.7,1.2-14.3,3.7-14.3,7.8c0,3.7,2.5,5.2,5.5,5.2S58.3,42,61.5,39.2z"/>
	<path fill="#FFFFFF" d="M68.8,18.9h2.6l5.8,16.3c0.8,2.5,1.8,5.1,2.6,7.5H80c0.9-2.4,1.8-5,2.6-7.5l5.8-16.3h2.4l-9.6,25.9h-2.8
		L68.8,18.9z"/>
	<path fill="#FFFFFF" d="M94.4,31.9c0-8.5,5.5-13.7,11.3-13.7c6.2,0,9.9,4.4,9.9,12c0,0.6,0,1.3-0.1,1.9H96.8
		c0.1,6.5,3.9,11.2,9.8,11.2c2.8,0,5-0.9,7-2.3l1,1.8c-2.1,1.2-4.4,2.5-8.2,2.5C99.7,45.5,94.4,40.4,94.4,31.9z M113.3,30.2
		c0-6.6-3-9.9-7.6-9.9c-4.4,0-8.4,3.7-8.9,9.9H113.3z"/>
	<path fill="#FFFFFF" d="M122.6,41.4V6h2.4v35.7c0,1.1,0.5,1.7,1.1,1.7c0.2,0,0.4,0,1-0.1l0.4,1.9c-0.5,0.2-1,0.3-1.7,0.3
		C123.7,45.5,122.6,44.2,122.6,41.4z"/>
	<path fill="#FFFFFF" d="M166.2,44.8l-9.7-16.4H149v16.4h-2.5V9.2h10.2c7.1,0,11.7,2.6,11.7,9.4c0,5.7-3.5,9-9.1,9.7l9.8,16.5H166.2
		z M156.1,26.4c6.3,0,9.8-2.5,9.8-7.8c0-5.3-3.5-7.3-9.8-7.3H149v15.1H156.1z"/>
	<path fill="#FFFFFF" d="M173.8,38.3c0-5.7,5.2-8.5,16.7-9.8c0.1-3.9-1-8.2-6.2-8.2c-3.5,0-6.5,1.7-8.3,3l-1.1-1.8
		c1.8-1.3,5.5-3.3,9.7-3.3c6.1,0,8.2,4.4,8.2,10v16.6h-2.1l-0.2-3.3h-0.2c-2.6,2.1-5.8,4-9.2,4C177.2,45.5,173.8,43.3,173.8,38.3z
		 M190.5,39.2v-8.8c-10.7,1.2-14.3,3.7-14.3,7.8c0,3.7,2.5,5.2,5.5,5.2C184.7,43.4,187.3,42,190.5,39.2z"/>
	<path fill="#FFFFFF" d="M200,31.9c0-8.4,5.3-13.7,11.5-13.7c3.1,0,5.2,1.2,7.8,3.2l-0.1-4.8V6h2.4v38.8h-2.1l-0.2-3.3h-0.2
		c-2.1,2.1-5,4-8.4,4C204.2,45.5,200,40.7,200,31.9z M219.2,39.1V23.7c-2.8-2.4-5-3.3-7.6-3.3c-5.2,0-9.1,5-9.1,11.6
		c0,6.9,3,11.4,8.5,11.4C213.9,43.4,216.4,41.9,219.2,39.1z"/>
	<path fill="#FFFFFF" d="M229.7,38.3c0-5.7,5.2-8.5,16.7-9.8c0.1-3.9-1-8.2-6.2-8.2c-3.5,0-6.5,1.7-8.3,3l-1.1-1.8
		c1.8-1.3,5.5-3.3,9.7-3.3c6.1,0,8.2,4.4,8.2,10v16.6h-2.1l-0.2-3.3h-0.2c-2.6,2.1-5.8,4-9.2,4C233.1,45.5,229.7,43.3,229.7,38.3z
		 M246.4,39.2v-8.8c-10.7,1.2-14.3,3.7-14.3,7.8c0,3.7,2.5,5.2,5.5,5.2C240.6,43.4,243.2,42,246.4,39.2z"/>
	<path fill="#FFFFFF" d="M258,18.9h2.1l0.2,4.8h0.2c1.7-3.2,4.3-5.5,7.3-5.5c1,0,1.7,0.1,2.6,0.5l-0.5,2.2c-0.9-0.3-1.3-0.4-2.4-0.4
		c-2.3,0-5.1,1.8-7.1,6.6v17.7H258V18.9z"/>
</g>
</svg>
